<svg class="our-services__img" xmlns="http://www.w3.org/2000/svg" id="st0" x="0px" y="0px" viewBox="0 0 100 100">
  <rect class="st0" width="100" height="100"/>
  <g id="ochki">
    <g>
      <path class="st3" d="M61.8,9.2c0,0-3.6-2.1-2.7-2.9c0.9-0.8,1.6-0.9,2.1-0.6c0.5,0.3,1.4,2.6,1.4,2.6L61.8,9.2z"/>
      <path class="st3" d="M94.2,15.5c0,0,4.1-0.6,3.6-1.6c-0.5-1-1.1-1.5-1.7-1.4c-0.6,0.1-2.2,1.8-2.2,1.8L94.2,15.5z"/>
      <path
        class="st4"
        d="M90.6,23.3l-9.5-1.9c-1.5-0.3-2.4-1.8-2.1-3.5l0-0.1c-1.7-0.1-3-0.5-3.9-0.8l0,0.1c-0.3,1.6-1.8,2.7-3.3,2.4
			l-9.5-1.9c-1.5-0.3-2.4-1.8-2.1-3.5l1.1-5.7c0.3-1.6,1.8-2.7,3.3-2.4L74.1,8c1.5,0.3,2.4,1.8,2.1,3.5l-0.1,0.6
			c0.1,0.6,0.5,1.8,1.8,2c0.9,0.2,1.5-0.2,2-0.5l0.3-1.3c0.3-1.6,1.8-2.7,3.3-2.4l9.5,1.9c1.5,0.3,2.4,1.8,2.1,3.5l-1.1,5.7
			C93.5,22.5,92,23.6,90.6,23.3z"/>
      <g>
        <path class="st5" d="M63.4,16.9c-1.2-0.2-2-1.5-1.7-2.9l0.9-4.7c0.3-1.3,1.5-2.2,2.7-2l4.9,1l-1.9,9.5L63.4,16.9z"/>
        <path class="st6" d="M71.2,18.4l-2.9-0.6l1.9-9.5l2.9,0.6c1.2,0.2,2,1.5,1.7,2.9l-0.9,4.7C73.7,17.8,72.5,18.7,71.2,18.4z"/>
      </g>
      <g>
        <path class="st5" d="M82.1,20.6c-1.2-0.2-2-1.5-1.7-2.9l0.9-4.7c0.3-1.3,1.5-2.2,2.7-2l6,1.2l-1.9,9.5L82.1,20.6z"/>
        <path class="st6" d="M89.9,22.1l-1.7-0.3l1.9-9.5l1.7,0.3c1.2,0.2,2,1.5,1.7,2.9l-0.9,4.7C92.3,21.4,91.1,22.3,89.9,22.1z"/>
      </g>
    </g>
  </g>
  <g id="gazeta">
    <polygon class="st1" points="70.8,21.9 11.3,21.9 11.3,83.6 88.9,83.6 88.9,35.5 "/>
    <path class="st2" d="M82.6,39.6H34.1c0,0,2.5-3,2.5-6.8s-2.5-6.4-2.5-6.4H73l9.6,8.5V39.6z"/>
    <g id="ugolok">
      <polygon class="st7" points="71.4,34.7 71.4,22.4 87.9,34.7 	"/>
    </g>
    <rect x="18.4" y="42.9" class="st9" width="23.3" height="13.5"/>
    <rect x="61.7" y="62.9" class="st9" width="21" height="13.5"/>
    <rect x="18.4" y="42.9" class="st2" width="23.3" height="13.5"/>
    <rect x="61.6" y="62.9" class="st2" width="21" height="13.5"/>
    <g>
      <rect x="43.9" y="42.9" class="st10" width="38.7" height="3.4"/>
      <rect x="43.9" y="47.9" class="st10" width="38.7" height="3.4"/>
      <rect x="43.9" y="52.9" class="st10" width="38.7" height="3.4"/>
      <rect x="18.4" y="57.9" class="st10" width="64.3" height="3.4"/>
      <rect x="18.4" y="62.9" class="st10" width="41.1" height="3.4"/>
      <rect x="18.4" y="67.9" class="st10" width="41.1" height="3.4"/>
      <rect x="18.4" y="73" class="st10" width="41.1" height="3.4"/>
    </g>
    <g id="12345">
      <g>
        <path class="st2" d="M26.7,41.6c-4.6,0-8.4-3.7-8.4-8.4s3.7-8.4,8.4-8.4s8.4,3.7,8.4,8.4S31.3,41.6,26.7,41.6z M26.7,25.4
			c-4.3,0-7.8,3.5-7.8,7.8c0,4.3,3.5,7.8,7.8,7.8s7.8-3.5,7.8-7.8C34.5,28.9,31,25.4,26.7,25.4z"/>
      </g>
      <g>
        <path
          class="st2a"
          d="M25.3,31.2c0,0-0.7,1-1.4,1.3c-0.7,0.3-1.2,0.3-1.1-0.2c0.2-0.5,2.8-5,2.8-5s0.6-0.7,0.9-0.3
			c0.3,0.4,0.6,1.5,1,1.5c0.4,0,2.1-1.5,2.1-1.5s0.8-0.5,0.8,0.2s-0.4,1.7-1.5,2.9S26,33.2,26,33.2s-1.4,1.8-1.3,3.7
			c0.1,1.9,0.5,2.6,1.4,2.7c0.9,0.1,2.5-1.8,2.8-3.4c0.2-1.6,0.4-3.5-0.5-3.6c-0.9-0.1-1.5,2.2-1.6,3.3c-0.1,1.1-0.2,1.9,0.1,2.1
			c0.2,0.2,0.3,0.5,0,0.8c-0.3,0.3-1.1,0.4-1.3-0.6c-0.2-1,0-1.7,0.5-3.7c0.5-1.9,2.7-3.2,3.5-3.2c0.8-0.1,2.2,0.3,1.7,2.9
			c-0.5,2.6-1.7,4.2-4.4,5.9c-2.7,1.7-4-1.8-4-2.9c0.1-1-0.3-1.9,2.2-4.6c1.3-1.3,2.8-1.6,3.5-2.9c0,0-0.9,0.7-1.7-0.1
			c-0.8-0.8-0.3-1.4-0.7-1.2c-0.4,0.2-0.6,1.6-0.6,1.6S25.5,30.5,25.3,31.2z"/>
      </g>
    </g>
  </g>
  <path class="kr" id="obvodka" d="M62.4,81c0,0-7.9-4.1-7.1-12.8s18.2-13.8,27.5-5.9c6.4,5.4,4.3,14.7-2.6,16.9s-14.9,2.6-20.9-4.2"/>
  <g id="pen1">
    <g id="pen">
      <g>
        <path class="st11" d="M25.3,92.9c-0.4-0.6-0.2-1.4,0.4-1.7l0.8-0.5c0.6-0.4,1.4-0.2,1.7,0.4l0.5,0.8c0.4,0.6,0.2,1.4-0.4,1.7
		l-0.8,0.5c-0.6,0.4-1.4,0.2-1.7-0.4L25.3,92.9z"/>
        <polygon class="st12" points="6.2,58.5 6.3,59.7 7.2,59.2 	"/>
        <g>
          <path class="st13" d="M26.2,91.1L8.4,62c0.1,0.4,0,0.9-0.3,1.1c-0.4,0.2-0.9,0.1-1.2-0.3l0,0l17.9,29.2L26.2,91.1z"/>
          <path class="st14" d="M27.8,90.2L9.8,61l0,0c0.2,0.5,0.2,1-0.3,1.3c-0.4,0.2-0.9,0-1.2-0.3c0,0,0,0,0,0l17.9,29.1L27.8,90.2z"/>
        </g>
        <path class="st11" d="M6.8,62.9L6.8,62.9L6.8,62.9c0.3,0.4,0.9,0.6,1.3,0.3c0.4-0.2,0.5-0.7,0.3-1.1c0.3,0.3,0.8,0.4,1.2,0.2
		c0.4-0.3,0.5-0.8,0.3-1.3l0,0l-2.7-1.8l-0.8,0.5L6.8,62.9L6.8,62.9C6.8,62.9,6.8,62.9,6.8,62.9z"/>
        <rect x="24.7" y="91.1" transform="matrix(0.8521 -0.5233 0.5233 0.8521 -43.9755 27.3909)" class="st15" width="3.5" height="0.9"/>
        <path class="st12" d="M24.9,92.5c0-0.1,0-0.1,0-0.2l2.9-1.8c0.1,0,0.1,0,0.2,0l0,0c0,0.1,0,0.1,0,0.2l-2.9,1.8
		C25,92.6,24.9,92.5,24.9,92.5L24.9,92.5z"/>
        <path class="st12" d="M24.7,92.1c0-0.1,0-0.1,0-0.2l2.9-1.8c0.1,0,0.1,0,0.2,0l0,0c0,0.1,0,0.1,0,0.2l-2.9,1.8
		C24.8,92.2,24.7,92.2,24.7,92.1L24.7,92.1z"/>
      </g>
    </g>
  </g>
</svg>
