<svg class="our-services__img" xmlns="http://www.w3.org/2000/svg" x="0px" y="0px" id="stw0" viewBox="0 0 100 100">
    <rect x="0" class="stw0" width="100" height="100"/>
    <g id="copy">
        <g id="copy1">
            <rect x="7" y="18.6" class="stw1" width="50.8" height="64.1"/>
            <rect x="10.2" y="37.4" class="stw2" width="21.5" height="1.7"/>
            <rect x="10.2" y="39.8" class="stw2" width="21.5" height="1.7"/>
            <rect x="10.2" y="42.2" class="stw2" width="21.5" height="1.7"/>
            <rect x="10.2" y="44.7" class="stw2" width="21.5" height="1.7"/>
            <rect x="10.2" y="47.1" class="stw2" width="21.5" height="1.7"/>
            <rect x="10.2" y="49.5" class="stw2" width="21.5" height="1.7"/>
            <rect x="10.2" y="51.9" class="stw2" width="21.5" height="1.7"/>
            <rect x="10.2" y="54.4" class="stw2" width="21.5" height="1.7"/>
            <rect x="10.2" y="56.8" class="stw2" width="21.5" height="1.7"/>
            <rect x="10.2" y="59.2" class="stw2" width="21.5" height="1.7"/>
            <rect x="10.2" y="61.6" class="stw2" width="21.5" height="1.7"/>
            <rect x="10.2" y="64.1" class="stw2" width="21.5" height="1.7"/>
            <rect x="10.2" y="66.5" class="stw2" width="21.5" height="1.7"/>
            <rect x="10.2" y="68.9" class="stw2" width="21.5" height="1.7"/>
            <rect x="10.2" y="71.3" class="stw2" width="21.5" height="1.7"/>
            <rect x="10.2" y="73.8" class="stw2" width="21.5" height="1.7"/>
            <rect x="10.2" y="76.2" class="stw2" width="21.5" height="1.7"/>
            <rect x="33" y="37.4" class="stw2" width="21.5" height="1.7"/>
            <rect x="33" y="39.8" class="stw2" width="21.5" height="1.7"/>
            <rect x="33" y="42.2" class="stw2" width="21.5" height="1.7"/>
            <rect x="33" y="44.7" class="stw3" width="21.5" height="1.7"/>
            <rect x="33" y="47.1" class="stw2" width="21.5" height="1.7"/>
            <rect x="33" y="49.5" class="stw2" width="21.5" height="1.7"/>
            <rect x="33" y="51.9" class="stw2" width="21.5" height="1.7"/>
            <rect x="33" y="54.4" class="stw2" width="21.5" height="1.7"/>
            <rect x="33" y="56.8" class="stw2" width="21.5" height="1.7"/>
            <rect x="33" y="59.2" class="stw2" width="21.5" height="1.7"/>
            <rect x="33" y="61.6" class="stw2" width="21.5" height="1.7"/>
            <rect x="33" y="64.1" class="stw2" width="21.5" height="1.7"/>
            <rect x="33" y="66.5" class="stw2" width="21.5" height="1.7"/>
            <rect x="33" y="68.9" class="stw2" width="21.5" height="1.7"/>
            <rect x="33" y="71.3" class="stw2" width="21.5" height="1.7"/>
            <rect x="33" y="73.8" class="stw2" width="21.5" height="1.7"/>
            <rect x="33" y="76.2" class="stw2" width="21.5" height="1.7"/>

            <g>
                <g>
                    <path
                        class="stw4"
                        d="M21.2,31h1.6c0.3,0,0.5,0.1,0.6,0.2c0.1,0.2,0.2,0.4,0.2,0.6c0,0.2-0.1,0.4-0.2,0.5c-0.1,0.1-0.2,0.2-0.3,0.2
			c0.2,0.1,0.3,0.2,0.4,0.3c0.1,0.1,0.1,0.3,0.1,0.5c0,0.2,0,0.3-0.1,0.5c-0.1,0.1-0.2,0.3-0.3,0.3c-0.1,0.1-0.2,0.1-0.3,0.1
			c-0.2,0-0.3,0-0.4,0h-1.5L21.2,31z M22.1,32.3h0.4c0.1,0,0.2,0,0.3-0.1c0.1-0.1,0.1-0.1,0.1-0.2c0-0.1,0-0.2-0.1-0.2
			c-0.1-0.1-0.1-0.1-0.3-0.1h-0.4V32.3z M22.1,33.7h0.4c0.1,0,0.3,0,0.3-0.1c0.1-0.1,0.1-0.2,0.1-0.3c0-0.1,0-0.2-0.1-0.2
			C22.8,33,22.7,33,22.5,33h-0.4V33.7z"/>
                    <path class="stw4" d="M24.2,31h2.3v0.7h-1.5v0.5h1.4V33h-1.4v0.7h1.5v0.8l-2.4,0V31z"/>
                    <path
                        class="stw4"
                        d="M28.9,33l0.8,0.3c-0.1,0.3-0.1,0.5-0.2,0.7c-0.1,0.2-0.2,0.3-0.4,0.4c-0.2,0.1-0.4,0.1-0.6,0.1
			c-0.3,0-0.6-0.1-0.7-0.2c-0.2-0.1-0.4-0.3-0.5-0.6c-0.1-0.3-0.2-0.6-0.2-1c0-0.6,0.1-1,0.4-1.3s0.6-0.5,1-0.5
			c0.4,0,0.6,0.1,0.8,0.3c0.2,0.2,0.4,0.4,0.4,0.8l-0.8,0.2c0-0.1-0.1-0.2-0.1-0.2c0-0.1-0.1-0.1-0.2-0.2c-0.1,0-0.1-0.1-0.2-0.1
			c-0.2,0-0.3,0.1-0.4,0.3c-0.1,0.1-0.1,0.4-0.1,0.7c0,0.4,0,0.6,0.1,0.8c0.1,0.1,0.2,0.2,0.4,0.2c0.2,0,0.3-0.1,0.4-0.2
			C28.8,33.4,28.9,33.2,28.9,33z"/>
                    <path class="stw4" d="M29.9,31h2.6v0.8h-0.9v2.6h-0.9v-2.6h-0.9V31z"/>
                    <path class="stw4" d="M33,31h0.9v1.2h0.9V31h0.9v3.4h-0.9V33h-0.9v1.4H33V31z"/>
                    <path class="stw4" d="M38.9,31v3.4h-0.8v-1.9l-1,1.9h-0.8V31H37v1.9l1.1-1.9H38.9z"/>
                    <path
                        class="stw4"
                        d="M42,34.4h-1l-0.3-0.9c-0.1-0.2-0.1-0.3-0.2-0.4c0-0.1-0.1-0.1-0.2-0.1v1.4h-0.9V31l0.9,0v1.3
			c0.1,0,0.1,0,0.2-0.1c0-0.1,0.1-0.2,0.2-0.5c0.1-0.2,0.1-0.4,0.2-0.5c0.1-0.1,0.2-0.2,0.3-0.2c0.1,0,0.4-0.1,0.7-0.1v0.7h0
			c-0.1,0-0.3,0-0.3,0.1c-0.1,0.1-0.1,0.2-0.2,0.3c0,0.2-0.1,0.3-0.1,0.3c-0.1,0.1-0.1,0.1-0.2,0.2c0.1,0,0.2,0.1,0.3,0.3
			c0.1,0.1,0.2,0.3,0.3,0.6L42,34.4z"/>
                </g>
                <ellipse class="stw4" cx="31.2" cy="25.3" rx="4.9" ry="5.1"/>
                <path class="stw4" d="M17.1,23.2c0,0,3.4-1.2,5.3-1.2s2.4,0.3,3.6,1c0,0-1.1,3.3,0.7,5.6c0,0-1.5-1.2-4.5-1.4
		c-3-0.2-5.1,1.3-5.1,1.3V23.2z"/>
                <path class="stw4" d="M35.7,22c0,0,2,1.6,0.9,5.3c0,0,3.1,1.9,5.1,1.9c2,0,4.7-1.2,4.7-1.2v-5.1c0,0-2.2,1.2-4.2,1.2
		S38.8,22,36.2,22L35.7,22z"/>
            </g>
        </g>
        <g id="copy2">
            <g>
                <g>
                    <g>
                        <path
                            class="stw0"
                            d="M66.2,37.6H32.8v56.8h45.8V49.9L66.2,37.6z M37.4,76.3c-0.9,0-1.5-0.7-1.5-1.5c0-0.9,0.7-1.5,1.5-1.5
					c0.9,0,1.5,0.7,1.5,1.5C38.9,75.7,38.2,76.3,37.4,76.3z M37.4,59.2c-0.9,0-1.5-0.7-1.5-1.5c0-0.9,0.7-1.5,1.5-1.5
					c0.9,0,1.5,0.7,1.5,1.5C38.9,58.5,38.2,59.2,37.4,59.2z"/>
                    </g>
                </g>
            </g>
            <g>
                <g>
                    <g>
                        <g>
                            <path
                                class="stw1"
                                d="M66.4,38.2H33.5v56.2h45.1V50.4L66.4,38.2z M38,76.5c-0.8,0-1.5-0.7-1.5-1.5c0-0.8,0.7-1.5,1.5-1.5
						c0.8,0,1.5,0.7,1.5,1.5C39.5,75.9,38.8,76.5,38,76.5z M38,59.6c-0.8,0-1.5-0.7-1.5-1.5c0-0.8,0.7-1.5,1.5-1.5
						c0.8,0,1.5,0.7,1.5,1.5C39.5,58.9,38.8,59.6,38,59.6z"/>
                        </g>
                    </g>
                </g>
                <g>
                    <g>
                        <path class="stw6" d="M66.3,50.4h12.3L66.3,38.2V50.4z"/>
                    </g>
                </g>
                <g>
                    <g>
                        <path class="stw3" d="M46.8,46.4h17.1v-1.6H46.8V46.4z"/>
                    </g>
                </g>
                <g>
                    <g>
                        <rect x="43" y="54.2" class="stw3" width="29.1" height="1.7"/>
                    </g>
                </g>
                <g>
                    <g>
                        <rect x="43" y="57.4" class="stw3" width="29.1" height="1.7"/>
                    </g>
                </g>
                <g>
                    <g>
                        <rect x="43" y="60.6" class="stw3" width="29.1" height="1.7"/>
                    </g>
                </g>
                <g>
                    <g>
                        <rect x="43" y="63.8" class="stw3" width="29.1" height="1.7"/>
                    </g>
                </g>
                <g>
                    <g>
                        <rect x="43" y="67" class="stw3" width="29.1" height="1.7"/>
                    </g>
                </g>
                <g>
                    <g>
                        <rect x="43" y="70.2" class="stw3" width="29.1" height="1.7"/>
                    </g>
                </g>
                <g>
                    <g>
                        <rect x="43" y="73.4" class="stw3" width="29.1" height="1.7"/>
                    </g>
                </g>
                <g>
                    <g>
                        <rect x="43" y="76.6" class="stw3" width="29.1" height="1.7"/>
                    </g>
                </g>
                <g>
                    <g>
                        <rect x="43" y="79.8" class="stw3" width="29.1" height="1.7"/>
                    </g>
                </g>
                <g>
                    <g>
                        <rect x="43" y="83" class="stw3" width="29.1" height="1.7"/>
                    </g>
                </g>
                <g>
                    <g>
                        <rect x="43" y="86.3" class="stw3" width="29.1" height="1.7"/>
                    </g>
                </g>
            </g>
        </g>
    </g>
    <g>
      <circle id="www" stroke="#fff" stroke-width="1px" stroke-dasharray="3 2" fill="none" id="greenround" cx="78.6" cy="22" r="15.5"/>
      <circle class="stw3" id="greenround" cx="78.6" cy="22" r="7.9"/>
    </g>
    <g id="strelka">
        <polygon class="stw5" points="93.8,45.9 89.4,39.6 93.4,36.9 82.1,31.6 82.1,44.4 86.1,41.8 90.5,48.2 	"/>
        <path d="M90.4,48.7L86,42.3l-4.2,2.8v-14l12.4,5.8l-4.2,2.8l4.4,6.3L90.4,48.7z M86.2,41.3l4.4,6.4l2.7-1.9l-4.4-6.3l3.8-2.5
		l-10.2-4.8v11.6L86.2,41.3z"/>
    </g>
</svg>
