<svg class="our-services__img" xmlns="http://www.w3.org/2000/svg" x="0px" y="0px" id="stq0" viewBox="0 0 100 100"> 
    <rect x="0" class="stq0" width="100" height="100"/>

    <g id="qq">
        <g id="qq1">
            <rect x="19.8" y="17.7" class="stq1" width="55" height="69.4"/>
            <rect x="23.2" y="22.2" class="stq2" width="23.3" height="1.8"/>
            <rect x="23.2" y="24.8" class="stq2" width="23.3" height="1.8"/>
            <rect x="23.2" y="27.5" class="stq2" width="23.3" height="1.8"/>
            <rect x="23.2" y="30.1" class="stq2" width="23.3" height="1.8"/>
            <rect x="23.2" y="32.7" class="stq2" width="23.3" height="1.8"/>
            <rect x="23.2" y="35.3" class="stq2" width="23.3" height="1.8"/>
            <rect x="23.2" y="38" class="stq2" width="23.3" height="1.8"/>
            <rect x="23.2" y="40.6" class="stq2" width="23.3" height="1.8"/>
            <rect x="23.2" y="43.2" class="stq2" width="23.3" height="1.8"/>
            <rect x="23.2" y="45.8" class="stq2" width="23.3" height="1.8"/>
            <rect x="23.2" y="48.5" class="stq2" width="23.3" height="1.8"/>
            <rect x="23.2" y="51.1" class="stq2" width="23.3" height="1.8"/>
            <rect x="23.2" y="53.7" class="stq2" width="23.3" height="1.8"/>
            <rect x="23.2" y="56.3" class="stq2" width="23.3" height="1.8"/>
            <rect x="23.2" y="59" class="stq2" width="23.3" height="1.8"/>
            <rect x="23.2" y="61.6" class="stq2" width="23.3" height="1.8"/>
            <rect x="23.2" y="64.2" class="stq2" width="23.3" height="1.8"/>
            <rect x="23.2" y="66.8" class="stq2" width="23.3" height="1.8"/>
            <rect x="23.2" y="69.5" class="stq2" width="23.3" height="1.8"/>
            <rect x="23.2" y="72.1" class="stq2" width="23.3" height="1.8"/>
            <rect x="23.2" y="74.7" class="stq2" width="23.3" height="1.8"/>
            <rect x="23.2" y="77.3" class="stq2" width="23.3" height="1.8"/>
            <rect x="23.2" y="80" class="stq2" width="23.3" height="1.8"/>
            <rect x="48" y="22.2" class="stq2" width="23.3" height="1.8"/>
            <rect x="48" y="24.8" class="stq2" width="23.3" height="1.8"/>
            <rect x="48" y="27.5" class="stq2" width="23.3" height="1.8"/>
            <rect x="48" y="30.1" class="stq2" width="23.3" height="1.8"/>
            <rect x="48" y="32.7" class="stq2" width="23.3" height="1.8"/>
            <rect x="48" y="35.3" class="stq2" width="23.3" height="1.8"/>
            <rect x="48" y="38" class="stq2" width="23.3" height="1.8"/>
            <rect x="48" y="40.6" class="stq2" width="23.3" height="1.8"/>
            <rect x="48" y="43.2" class="stq2" width="23.3" height="1.8"/>
            <rect x="48" y="45.8" class="stq3" width="23.3" height="1.8"/>
            <rect x="48" y="48.5" class="stq2" width="23.3" height="1.8"/>
            <rect x="48" y="51.1" class="stq2" width="23.3" height="1.8"/>
            <rect x="48" y="53.7" class="stq2" width="23.3" height="1.8"/>
            <rect x="48" y="56.3" class="stq2" width="23.3" height="1.8"/>
            <rect x="48" y="59" class="stq2" width="23.3" height="1.8"/>
            <rect x="48" y="61.6" class="stq2" width="23.3" height="1.8"/>
            <rect x="48" y="64.2" class="stq2" width="23.3" height="1.8"/>
            <rect x="48" y="66.8" class="stq2" width="23.3" height="1.8"/>
            <rect x="48" y="69.5" class="stq2" width="23.3" height="1.8"/>
            <rect x="48" y="72.1" class="stq2" width="23.3" height="1.8"/>
            <rect x="48" y="74.7" class="stq2" width="23.3" height="1.8"/>
            <rect x="48" y="77.3" class="stq2" width="23.3" height="1.8"/>
            <rect x="48" y="80" class="stq2" width="23.3" height="1.8"/>
        </g>

        <g id="qq2">
            <rect x="19.7" y="16.5" class="stq4" width="55.1" height="71.2"/>
            <g>
                <g>
                    <path
                        class="stq5"
                        d="M33.2,39.5h2.2c0.4,0,0.7,0.1,0.8,0.3c0.2,0.2,0.3,0.5,0.3,0.8c0,0.3-0.1,0.5-0.2,0.7
				c-0.1,0.1-0.2,0.2-0.4,0.3c0.3,0.1,0.5,0.2,0.6,0.4c0.1,0.2,0.2,0.4,0.2,0.7c0,0.2,0,0.5-0.1,0.7c-0.1,0.2-0.2,0.3-0.4,0.5
				C36.1,44,36,44,35.8,44.1c-0.3,0-0.4,0.1-0.5,0.1h-2L33.2,39.5z M34.4,41.3h0.5c0.2,0,0.3,0,0.4-0.1c0.1-0.1,0.1-0.2,0.1-0.3
				c0-0.1,0-0.2-0.1-0.3c-0.1-0.1-0.2-0.1-0.4-0.1h-0.5V41.3z M34.4,43.1H35c0.2,0,0.3,0,0.4-0.1c0.1-0.1,0.1-0.2,0.1-0.4
				c0-0.1,0-0.2-0.1-0.3c-0.1-0.1-0.2-0.1-0.4-0.1h-0.6V43.1z"/>
                    <path class="stq5" d="M37.4,39.5h3.2v1h-2v0.7h1.8v1h-1.8v0.9h2v1.1l-3.2,0V39.5z"/>
                    <path
                        class="stq5"
                        d="M43.8,42.2l1,0.4c-0.1,0.4-0.2,0.7-0.3,0.9c-0.1,0.2-0.3,0.4-0.6,0.5c-0.2,0.1-0.5,0.2-0.8,0.2
				c-0.4,0-0.8-0.1-1-0.2c-0.3-0.1-0.5-0.4-0.7-0.8c-0.2-0.4-0.3-0.8-0.3-1.4c0-0.8,0.2-1.4,0.5-1.8c0.3-0.4,0.8-0.6,1.4-0.6
				c0.5,0,0.9,0.1,1.1,0.4c0.3,0.2,0.5,0.6,0.6,1.1l-1,0.3c0-0.1-0.1-0.2-0.1-0.3c-0.1-0.1-0.1-0.2-0.2-0.3
				c-0.1-0.1-0.2-0.1-0.3-0.1c-0.3,0-0.5,0.1-0.6,0.4c-0.1,0.2-0.2,0.5-0.2,0.9c0,0.5,0.1,0.9,0.2,1.1c0.1,0.2,0.3,0.3,0.5,0.3
				c0.2,0,0.4-0.1,0.5-0.2C43.6,42.8,43.7,42.5,43.8,42.2z"/>
                    <path class="stq5" d="M45.1,39.5h3.6v1.2h-1.2v3.5h-1.2v-3.5h-1.2V39.5z"/>
                    <path class="stq5" d="M49.3,39.5h1.2v1.6h1.3v-1.6h1.2v4.7h-1.2v-1.9h-1.3v1.9h-1.2V39.5z"/>
                    <path class="stq5" d="M57.4,39.5v4.7h-1.1v-2.6l-1.4,2.6h-1.1v-4.7h1.1v2.6l1.4-2.6H57.4z"/>
                    <path
                        class="stq5"
                        d="M61.6,44.1h-1.3l-0.5-1.2c-0.1-0.3-0.2-0.5-0.3-0.5c-0.1-0.1-0.1-0.1-0.3-0.1v1.8h-1.2v-4.7l1.2,0v1.8
				c0.1,0,0.2-0.1,0.2-0.1c0.1-0.1,0.1-0.3,0.3-0.7c0.1-0.3,0.2-0.5,0.3-0.6c0.1-0.1,0.2-0.2,0.4-0.3c0.2-0.1,0.5-0.1,1-0.1v1h-0.1
				c-0.2,0-0.4,0-0.4,0.1c-0.1,0.1-0.2,0.2-0.2,0.5c-0.1,0.2-0.1,0.4-0.2,0.5c-0.1,0.1-0.2,0.2-0.3,0.2c0.2,0.1,0.3,0.2,0.4,0.4
				c0.1,0.2,0.3,0.4,0.4,0.8L61.6,44.1z"/>
                </g>
                <ellipse class="stq5" cx="46.9" cy="31.7" rx="6.7" ry="6.9"/>
                <g></g>
                <path class="stq5" d="M27.6,28.8c0,0,4.6-1.7,7.2-1.7c2.6,0,3.3,0.5,4.8,1.4c0,0-1.5,4.5,0.9,7.7c0,0-2-1.6-6.1-1.8
			c-4.1-0.2-6.9,1.8-6.9,1.8V28.8z"/>
                <path class="stq5" d="M53,27.2c0,0,2.8,2.1,1.2,7.3c0,0,4.3,2.5,7,2.5c2.7,0,6.4-1.6,6.4-1.6v-7c0,0-3,1.6-5.7,1.6
			s-4.6-2.8-8.1-2.8L53,27.2z"/>
            </g>
            <rect x="24.1" y="18.4" class="stq6" width="1" height="67.4"/>
            <rect x="70.1" y="18.4" class="stq6" width="1" height="67.4"/>

            <rect x="47.2" y="-4.7" transform="matrix(-1.836970e-16 1 -1 -1.836970e-16 68.6398 -26.7416)" class="stq6" width="1.1" height="51.3"/>

            <rect x="46.6" y="57.4" transform="matrix(-1.836970e-16 1 -1 -1.836970e-16 130.1529 35.8072)" class="stq6" width="1.1" height="51.3"/>
        </g>
    </g>
    <g id="wflash">
        <g id="flash">
            <path class="stq7" d="M7.5,27.4L7.5,27.4c-2-2.2-1.9-5.5,0.3-7.5l13.9-13c0.3-0.3,0.8-0.3,1.1,0l6.2,6.7c0.3,0.3,0.3,0.8,0,1.1
		L15,27.6C12.9,29.6,9.5,29.5,7.5,27.4z"/>
            <path class="stq8" d="M12.1,23L12.1,23c-1.3-1.4-1.2-3.5,0.2-4.8l7.4-6.9c1.4-1.3,3.5-1.2,4.8,0.2l0,0c1.3,1.4,1.2,3.5-0.2,4.8
		l-7.4,6.9C15.5,24.5,13.4,24.4,12.1,23z"/>
            <path class="stq9" d="M30.9,6.7l-1.2-1.3c-0.9-0.9-2.3-1-3.3-0.1l-2.7,2.6l4.4,4.7l2.7-2.6C31.8,9.1,31.8,7.7,30.9,6.7z"/>
            <path class="stq10" d="M30.3,6.1l-1.8-2c-0.2-0.2-0.5-0.2-0.7,0l-4.1,3.8l2.2,2.3L30.3,6.1z"/>
            <g>
                <path class="stq11" d="M28.7,10.3l-0.6-0.6C28,9.5,28,9.1,28.2,9l0,0c0.2-0.2,0.5-0.2,0.7,0l0.6,0.6c0.2,0.2,0.2,0.5,0,0.7l0,0
			C29.2,10.5,28.9,10.5,28.7,10.3z"/>
                <path class="stq11" d="M26.6,8L26,7.4c-0.2-0.2-0.2-0.5,0-0.7l0,0c0.2-0.2,0.5-0.2,0.7,0l0.6,0.6c0.2,0.2,0.2,0.5,0,0.7l0,0
			C27.1,8.2,26.7,8.2,26.6,8z"/>
            </g>
            <path class="stq10" d="M7.5,27.4L7.5,27.4l18.4-17.1l-3.1-3.3c-0.3-0.3-0.8-0.3-1.1,0l-13.9,13C5.6,21.8,5.5,25.2,7.5,27.4z"/>
        </g>
    </g>

    <g id="wphone">
        <g id="phone">
            <g id="phoneV">
                <path class="stq9" d="M79,95l-11.1-3.8c-2.8-0.9-4.3-4-3.4-6.8l9.1-27.1c0.9-2.8,4-4.3,6.8-3.4l11.1,3.8c2.8,0.9,4.3,4,3.4,6.8
		l-9.1,27.1C84.8,94.4,81.8,95.9,79,95z"/>
                <path class="stq10" d="M85.3,93.1l10.1-29.9c0.1-0.4,0.5-1.8-0.2-3L64.7,89.5c0.2,0.4,0.9,1,1.4,1.1l14.4,4.9
		C82.4,96.1,84.6,95.1,85.3,93.1z"/>
                <path class="stq11" d="M80.6,89.1l-10.5-3.6c-1.7-0.6-2.6-2.4-2-4.1l7.7-22.8c0.6-1.7,2.4-2.6,4.1-2l10.5,3.6c1.7,0.6,2.6,2.4,2,4.1
		l-7.7,22.8C84.2,88.8,82.3,89.7,80.6,89.1z"/>
                <path class="stq12" d="M73.8,92.1L73.8,92.1c-0.9-0.3-1.4-1.3-1.1-2.3v0c0.3-0.9,1.3-1.4,2.3-1.1h0C75.8,89,76.4,90,76,91l0,0
		C75.7,91.9,74.7,92.4,73.8,92.1z"/>
                <path class="stq10" d="M72.9,89.9L72.9,89.9c0.3-0.8,1.1-1.2,1.9-0.9l0,0c0.8,0.3,1.2,1.1,0.9,1.9l0,0c-0.3,0.8-1.1,1.2-1.9,0.9l0,0
		C73.1,91.5,72.7,90.7,72.9,89.9z"/>
                <path class="stq11" d="M80.9,93.1l-2.3-0.8c-0.2-0.1-0.4-0.3-0.3-0.6v0c0.1-0.2,0.3-0.4,0.6-0.3l2.3,0.8c0.2,0.1,0.4,0.3,0.3,0.6
		l0,0C81.4,93,81.1,93.2,80.9,93.1z"/>
                <path class="stq11" d="M69.8,89.3l-2.3-0.8c-0.2-0.1-0.4-0.3-0.3-0.6l0,0c0.1-0.2,0.3-0.4,0.6-0.3l2.3,0.8c0.2,0.1,0.4,0.3,0.3,0.6
		l0,0C70.3,89.3,70,89.4,69.8,89.3z"/>
                <ellipse transform="matrix(0.3197 -0.9475 0.9475 0.3197 5.8395 126.7211)" class="stq11" cx="91.2" cy="59.3" rx="0.5" ry="0.5"/>
                <ellipse transform="matrix(0.3197 -0.9475 0.9475 0.3197 5.8395 126.7211)" class="stq10" cx="91.2" cy="59.3" rx="0.2" ry="0.2"/>
                <g class="stq13">
                    <path class="stq9" d="M70.3,85.3l10.4,3.5c1.6,0.6,3.4-0.3,4-2L92,64.6c0.5-1.8,0.1-3.1-1.1-3.8L68.2,82.3
		C68.2,83.7,69,84.8,70.3,85.3z"/>
                </g>

            </g>
        </g>
    </g>
</svg>
