<svg class="our-services__img" xmlns="http://www.w3.org/2000/svg" x="0px" y="0px" id="ste0" viewBox="0 0 100 100">
  <rect x="0" class="ste0" width="100" height="100"/>
  <g>
    <circle class="ste1" id="circle4" cx="50.3" cy="49.6" r="39.3"/>
  </g>
  <g>
    <g>
      <path class="ste2" d="M66.3,8H14.7c-8.1,0-8.5,2-8.5,9.6v31.7c0,7.6,0.3,9.6,8.5,9.6h19.4v6h12.7v-6h19.5c8.1,0,8.5-2,8.5-9.6V17.6
			C74.7,10,74.4,8,66.3,8z"/>
    </g>
    <rect x="10.3" y="11.6" id="monitorFont" class="ste0" width="60.1" height="40.3"/>
    <g>
      <g>
        <circle class="ste3" cx="12" cy="53.5" r="0.7"/>
      </g>
    </g>
    <g>
      <g>
        <circle class="ste3" cx="14.3" cy="53.5" r="0.7"/>
      </g>
    </g>
    <g>
      <g>
        <rect x="15.8" y="28.2" class="ste4" width="23.4" height="3.5"/>
      </g>
    </g>
    <g>
      <g>
        <rect x="15.7" y="33.3" class="ste4" width="23.4" height="3.5"/>
      </g>
    </g>
    <g>
      <g>
        <rect x="15.8" y="38.7" class="ste4" width="23.4" height="3.5"/>
      </g>
    </g>
    <g>
      <g>
        <rect x="15.8" y="43.9" class="ste4" width="23.4" height="3.5"/>
      </g>
    </g>
    <g>
      <g>
        <rect x="41.8" y="28.2" class="ste4" width="23.4" height="3.5"/>
      </g>
    </g>
    <g>
      <g>
        <rect x="41.7" y="33.3" class="ste3" width="23.4" height="3.5"/>
      </g>
    </g>
    <g>
      <g>
        <rect x="41.8" y="38.7" class="ste4" width="23.4" height="3.5"/>
      </g>
    </g>
    <g>
      <g>
        <rect x="41.8" y="43.9" class="ste4" width="23.4" height="3.5"/>
      </g>
    </g>
    <g>
      <g>
        <rect x="15.4" y="14.5" class="ste5" width="49.8" height="11.9"/>
      </g>
    </g>
    <g>
      <g>
        <path
          class="ste6"
          d="M33.6,22.9h1.1c0.2,0,0.3,0.1,0.4,0.2c0.1,0.1,0.1,0.2,0.1,0.4c0,0.1,0,0.2-0.1,0.3c0,0.1-0.1,0.1-0.2,0.1
				c0.1,0,0.2,0.1,0.3,0.2c0.1,0.1,0.1,0.2,0.1,0.4c0,0.1,0,0.2-0.1,0.3c0,0.1-0.1,0.2-0.2,0.2c0,0-0.1,0.1-0.2,0.1
				c-0.1,0-0.2,0-0.3,0h-1L33.6,22.9z M34.2,23.7h0.2c0.1,0,0.1,0,0.2-0.1c0,0,0.1-0.1,0.1-0.2c0-0.1,0-0.1-0.1-0.2
				c0,0-0.1-0.1-0.2-0.1h-0.3V23.7z M34.2,24.6h0.3c0.1,0,0.2,0,0.2-0.1c0,0,0.1-0.1,0.1-0.2c0-0.1,0-0.1-0.1-0.2
				c0,0-0.1-0.1-0.2-0.1h-0.3V24.6z"/>
        <path class="ste6" d="M35.6,22.9h1.5v0.5h-1v0.4h0.9v0.5h-0.9v0.4h1v0.5l-1.5,0V22.9z"/>
        <path
          class="ste6"
          d="M38.7,24.2l0.5,0.2c0,0.2-0.1,0.3-0.2,0.4c-0.1,0.1-0.2,0.2-0.3,0.3c-0.1,0.1-0.2,0.1-0.4,0.1
				c-0.2,0-0.4,0-0.5-0.1c-0.1-0.1-0.2-0.2-0.3-0.4c-0.1-0.2-0.1-0.4-0.1-0.7c0-0.4,0.1-0.7,0.2-0.9c0.2-0.2,0.4-0.3,0.7-0.3
				c0.2,0,0.4,0.1,0.5,0.2c0.1,0.1,0.2,0.3,0.3,0.5l-0.5,0.1c0-0.1,0-0.1-0.1-0.2c0-0.1-0.1-0.1-0.1-0.1c0,0-0.1,0-0.2,0
				c-0.1,0-0.2,0.1-0.3,0.2C38,23.6,38,23.8,38,24c0,0.2,0,0.4,0.1,0.5c0.1,0.1,0.1,0.1,0.3,0.1c0.1,0,0.2,0,0.2-0.1
				C38.6,24.4,38.7,24.3,38.7,24.2z"/>
        <path class="ste6" d="M39.3,22.9h1.7v0.6h-0.6v1.7h-0.6v-1.7h-0.6V22.9z"/>
        <path class="ste6" d="M41.3,22.9h0.6v0.8h0.6v-0.8h0.6v2.2h-0.6v-0.9h-0.6v0.9h-0.6V22.9z"/>
        <path class="ste6" d="M45.2,22.9v2.2h-0.5v-1.2L44,25.1h-0.5v-2.2H44v1.2l0.7-1.2H45.2z"/>
        <path
          class="ste6"
          d="M47.3,25.1h-0.6l-0.2-0.6c-0.1-0.1-0.1-0.2-0.1-0.3c0,0-0.1-0.1-0.1-0.1v0.9h-0.6v-2.2l0.6,0v0.9
				c0,0,0.1,0,0.1-0.1c0,0,0.1-0.2,0.1-0.3c0-0.1,0.1-0.2,0.1-0.3c0-0.1,0.1-0.1,0.2-0.1c0.1,0,0.3,0,0.5,0v0.5h0
				c-0.1,0-0.2,0-0.2,0.1c0,0-0.1,0.1-0.1,0.2c0,0.1-0.1,0.2-0.1,0.2c0,0-0.1,0.1-0.1,0.1c0.1,0,0.2,0.1,0.2,0.2
				c0.1,0.1,0.1,0.2,0.2,0.4L47.3,25.1z"/>
      </g>
      <ellipse class="ste6" cx="40.2" cy="19.1" rx="3.2" ry="3.3"/>
      <path class="ste6" d="M30.9,17.8c0,0,2.2-0.8,3.5-0.8c1.3,0,1.6,0.2,2.3,0.7c0,0-0.7,2.2,0.5,3.7c0,0-1-0.8-2.9-0.9
			c-2-0.1-3.3,0.9-3.3,0.9V17.8z"/>
      <path class="ste6" d="M43.1,17c0,0,1.3,1,0.6,3.5c0,0,2,1.2,3.4,1.2c1.3,0,3-0.8,3-0.8v-3.4c0,0-1.4,0.8-2.7,0.8S45.1,17,43.5,17
			L43.1,17z"/>
    </g>
    <polygon class="ste4" points="34.1,58.9 46.8,58.9 34.1,59.9 	"/>
    <rect x="15.4" y="27.3" class="ste7" id="onMonitor" width="49.8" height="23"/>
    <path class="ste8" d="M46.4,8l-27.2,51h50.2c2.9,0,5.3-2.4,5.3-5.3V12.9c0-2.8-2.2-5-5-5H46.4z"/>
    <path class="ste4" d="M60.7,68.6H20.6v-2.1c0-1.6,1.3-2.8,2.8-2.8h34.5c1.6,0,2.8,1.3,2.8,2.8V68.6z"/>
  </g>
  <polygon class="ste6" points="69.5,53.1 45.1,67.4 45.1,94.3 93.3,94.3 93.3,66.8 "/>
  <g>
    <g>
      <polygon class="ste4" points="93.3,67.8 45.7,67.8 69.5,81.8 		"/>
    </g>
    <g>
      <polygon class="ste4" points="45.7,67.8 93.3,67.8 69.5,53.8 		"/>
    </g>
    <polygon class="ste9" points="54.4,65.4 80.7,60.7 90.6,66.3 85,82.5 54.4,82.5 	"/>
    <polygon class="ste2" points="45.7,67.8 69.5,53.8 93.3,67.8 69.5,54.4 	"/>
  </g>
  <g id="konv2">
    <g>
      <g>
        <g>
          <rect x="54.9" y="65.9" class="ste5" width="30.2" height="25.9"/>
        </g>
        <g>
          <g>
            <rect x="60.4" y="76.8" class="ste4" width="19" height="1.4"/>
          </g>
          <g>
            <rect x="60.4" y="79.8" class="ste3" width="19" height="1.4"/>
          </g>
          <g>
            <rect x="60.4" y="82.8" class="ste4" width="19" height="1.4"/>
          </g>
          <g>
            <rect x="60.4" y="85.8" class="ste3" width="19" height="1.4"/>
          </g>
        </g>
      </g>
      <g>
        <ellipse class="ste6" cx="69.8" cy="72.4" rx="1.6" ry="1.6"/>
        <path class="ste6" d="M65.2,71.7c0,0,1.1-0.4,1.7-0.4s0.8,0.1,1.2,0.3c0,0-0.4,1.1,0.2,1.8c0,0-0.5-0.4-1.5-0.4
				c-1-0.1-1.7,0.4-1.7,0.4V71.7z"/>
        <path class="ste6" d="M71.3,71.3c0,0,0.7,0.5,0.3,1.7c0,0,1,0.6,1.7,0.6s1.5-0.4,1.5-0.4v-1.7c0,0-0.7,0.4-1.4,0.4
				c-0.7,0-1.1-0.7-1.9-0.7L71.3,71.3z"/>
      </g>
    </g>
    <rect x="57.8" y="65.9" class="ste10" width="0.3" height="25.9"/>

    <rect x="69.8" y="53.9" transform="matrix(-1.836970e-16 1 -1 -1.836970e-16 138.9674 -0.9694)" class="ste10" width="0.3" height="30.2"/>
    <rect x="81.7" y="65.9" class="ste10" width="0.3" height="25.9"/>
  </g>
  <g id="konvFace">
    <g>
      <polygon class="ste2" points="45.7,67.8 45.7,94.3 69.5,81.1 		"/>
    </g>
    <g>
      <polygon class="ste2" points="93.3,94.3 93.3,67.8 69.5,81.1 		"/>
    </g>
    <path class="ste4" d="M45.7,94.3h47.6L70.2,80.8h-1.3L45.7,94.3z"/>
    <path class="ste2" d="M45.7,94.3h47.6L70.2,81.2h-1.3L45.7,94.3z"/>
    <polygon class="ste9" points="93.3,67.8 70.2,80.8 68.9,80.8 45.7,67.8 68.9,80.4 70.2,80.4 	"/>
  </g>
</svg>
