<?xml version="1.0" encoding="utf-8"?><svg xmlns="http://www.w3.org/2000/svg" xmlns:xlink="http://www.w3.org/1999/xlink"><symbol viewBox="0 0 18.828 18.828" id="all" xmlns="http://www.w3.org/2000/svg"><path d="M15.121 5.707a.999.999 0 1 0-1.414 1.414L15 8.414h-4.586V3.828l1.293 1.293a.997.997 0 0 0 1.414 0 .999.999 0 0 0 0-1.414L9.414 0 5.707 3.707a.999.999 0 1 0 1.414 1.414l1.293-1.293v4.586H3.828l1.293-1.293a.999.999 0 1 0-1.414-1.414L0 9.414l3.707 3.707a.997.997 0 0 0 1.414 0 .999.999 0 0 0 0-1.414l-1.293-1.293h4.586V15l-1.293-1.293a.999.999 0 1 0-1.414 1.414l3.707 3.707 3.707-3.707a.999.999 0 1 0-1.414-1.414L10.414 15v-4.586H15l-1.293 1.293a.999.999 0 1 0 1.414 1.414l3.707-3.707-3.707-3.707z"/></symbol><symbol viewBox="0 0 48.755 48.755" id="auto" xmlns="http://www.w3.org/2000/svg"><path d="M11.364 27.228c-2.601 0-4.707 2.106-4.707 4.706s2.106 4.706 4.707 4.706a4.706 4.706 0 0 0 0-9.412zm0 6.834a2.128 2.128 0 1 1 2.127-2.127 2.128 2.128 0 0 1-2.127 2.127zm25.361-6.834a4.706 4.706 0 1 0 0 9.412 4.706 4.706 0 1 0 0-9.412zm0 6.834a2.128 2.128 0 0 1 0-4.254 2.13 2.13 0 0 1 2.129 2.127 2.13 2.13 0 0 1-2.129 2.127zm9.695-17.236c-.477 0-.912.144-1.277.385l-.008-3.661s.18-1.434-1.289-1.434l-23.606-.001c-1.322 0-1.47 1.252-1.47 1.252l-2.326 6.772s-10.104.037-12.507.037c-2.406 0-2.356 1.36-2.356 1.36v6.054c0 .023.004.049.004.07H0v5.086h5.369a5.966 5.966 0 1 1 11.826-1.109c0 .38-.039.75-.104 1.109H30.95a5.965 5.965 0 1 1 11.826-1.109c0 .39-.039.769-.107 1.138l2.504.045h2.584v-3.151h-2.584v.059l-.006-1.99a2.33 2.33 0 0 0 3.588-1.957v-6.626a2.337 2.337 0 0 0-2.335-2.329zm-16.439 3.385H19.666l1.719-6.448h8.598l-.002 6.448zm12.898.143H31.557v-6.591h11.322v6.591z"/></symbol><symbol viewBox="0 0 18.501 18.501" id="bus" xmlns="http://www.w3.org/2000/svg"><path d="M13.762 10.862a1.837 1.837 0 1 0 .003 3.671 1.837 1.837 0 0 0-.003-3.671zm0 3.004c-.646 0-1.168-.522-1.168-1.168s.521-1.17 1.168-1.17a1.17 1.17 0 1 1 0 2.338zM5.04 10.862c-1.016 0-1.838.82-1.838 1.836a1.838 1.838 0 0 0 3.674 0 1.838 1.838 0 0 0-1.836-1.836zm0 3.004a1.168 1.168 0 1 1-.002-2.34 1.168 1.168 0 0 1 .002 2.34zm13.211-3.063v-2.59l-.006-.006c-.047-1.875-.496-2.892-.496-2.892 0-.746-.604-1.349-1.352-1.349H2.428a1.35 1.35 0 0 0-1.35 1.349S.626 6.331.581 8.207l-.005.005V8.6l-.373.278v.032l-.007-.002c-.108 0-.196.266-.196.591s.088.591.196.591l.007-.002v.047l.372.305v.967c0 .074.008.145.02.217-.186.01-.333.182-.333.393v.479c0 .221.16.396.356.396h1.78a.348.348 0 0 0 .267-.137h.278c0-1.166.941-2.111 2.105-2.119a2.12 2.12 0 0 1 2.107 2.119h4.514c0-1.166.939-2.111 2.105-2.119a2.119 2.119 0 0 1 2.105 2.119h1.018c.314 0 .605-.107.836-.291h.42a.349.349 0 0 0 .348-.347v-.979a.345.345 0 0 0-.25-.335zm-13.28-2.95H1.107c.094-1.615.479-2.484.479-2.484 0-.088.009-.176.024-.258h3.358c.133 0 .237.111.237.249v2.242h.001a.241.241 0 0 1-.235.251zm5.166-.2c0 .138-.106.251-.235.251H6.025c-.132 0-.236-.113-.236-.251v-2.24c0-.138.105-.251.236-.251H9.9c.131 0 .235.113.235.251l.002 2.24zm4.845 0a.244.244 0 0 1-.238.251h-3.875c-.131 0-.235-.113-.235-.251v-2.24c0-.138.104-.251.235-.251h3.875c.134 0 .238.113.238.251v2.24zm.028 2.422c.007-.067.058-.12.119-.12h2.138c.062 0 .112.053.118.12H15.01zm0-.237c.007-.066.058-.123.119-.123h2.138c.062 0 .112.056.118.123H15.01zm0-.236c.007-.068.058-.122.119-.122h2.138c.062 0 .112.054.118.122H15.01zm0-.238c.007-.068.058-.122.119-.122h2.138c.062 0 .112.054.118.122H15.01z"/></symbol><symbol viewBox="0 0 512 512" id="clock" xmlns="http://www.w3.org/2000/svg"><path d="M437.019 74.981C388.667 26.629 324.38 0 256 0S123.333 26.63 74.981 74.981 0 187.62 0 256s26.629 132.667 74.981 181.019C123.332 485.371 187.62 512 256 512s132.667-26.629 181.019-74.981C485.371 388.667 512 324.38 512 256s-26.629-132.668-74.981-181.019zM256 470.636C137.65 470.636 41.364 374.35 41.364 256S137.65 41.364 256 41.364 470.636 137.65 470.636 256 374.35 470.636 256 470.636z"/><path d="M341.221 311.97l-64.538-64.537V114.809c0-11.422-9.259-20.682-20.682-20.682-11.422 0-20.682 9.26-20.682 20.682V256a20.682 20.682 0 0 0 6.058 14.625l70.594 70.595a20.616 20.616 0 0 0 14.625 6.058 20.622 20.622 0 0 0 14.626-6.058c8.075-8.078 8.075-21.173-.001-29.25z"/></symbol><symbol viewBox="0 0 512 512" id="compass" xmlns="http://www.w3.org/2000/svg"><path d="M256 74.473c-113.261 0-205.576 92.315-205.576 205.576S142.739 485.624 256 485.624s205.576-92.315 205.576-205.576S369.261 74.473 256 74.473zm7.758 395.636v-26.376h-15.515v26.376c-98.521-4.655-178.424-83.782-182.303-182.303h26.376v-15.515H65.939c3.879-98.521 83.782-178.424 182.303-182.303v26.376h15.515V89.988c98.521 3.879 178.424 83.782 182.303 182.303h-26.376v15.515h26.376c-3.878 98.521-83.781 177.649-182.302 182.303z"/><path d="M394.085 232.727c-.776-3.879-4.655-6.206-8.533-5.43L256 246.691c-7.758 0-15.515 2.327-20.945 6.982l-114.036 64.388c-3.103 1.552-4.655 5.43-3.879 9.309 1.552 3.879 4.655 5.43 8.533 5.43l129.552-19.394c7.758 0 15.515-2.327 20.946-6.982l114.036-64.388c3.102-1.551 4.654-5.43 3.878-9.309zm-228.849 77.576l57.406-31.806c0 3.879 0 7.758 1.552 11.636s3.103 7.758 6.206 10.861l-65.164 9.309zm96.97-13.964c-8.533 3.103-19.394-1.552-22.497-10.861-3.103-7.758 0-17.842 10.085-22.497 10.085-3.879 20.17 1.552 23.273 10.861 2.327 9.31-1.552 19.394-10.861 22.497zm27.152-15.515c0-3.879 0-7.758-1.552-11.636-1.552-3.879-3.103-7.758-6.206-10.861l65.164-10.085-57.406 32.582zm-20.946-152.048v33.357l-25.6-33.357h-10.86v52.751h11.636V148.17l24.824 33.357h11.636v-52.751zm6.206 269.963c-2.327-1.552-3.879-2.327-5.43-3.103-1.552-.776-3.879-1.552-7.758-2.327-3.879-.776-6.206-2.327-7.758-3.103s-2.327-2.327-2.327-3.879c0-3.103 2.327-3.879 7.758-3.879 5.43 0 10.085 1.552 15.515 5.43l6.206-10.861c-6.982-4.655-13.964-6.982-20.945-6.982-6.982 0-12.412 1.552-17.067 5.43-4.655 3.103-6.206 7.758-6.206 13.188s2.327 9.309 6.982 12.412c2.327 1.552 3.879 2.327 5.43 3.103s3.879 1.552 7.758 2.327c3.879.776 5.43 2.327 7.758 3.103 1.552.776 2.327 2.327 2.327 3.879s-.776 2.327-1.552 3.103c-1.552.776-3.103 1.552-4.655 1.552-6.982 0-13.188-2.327-19.394-6.982l-6.982 10.085c3.879 3.103 7.758 5.43 12.412 6.982s9.309 2.327 13.964 2.327c6.206 0 11.636-1.552 16.291-5.43s6.206-7.758 6.206-13.964c-3.103-5.429-4.654-9.308-8.533-12.411z"/><path d="M311.855 54.303V15.515h22.497c4.655 0 7.758-3.103 7.758-7.758S339.006 0 334.352 0H177.648c-4.655 0-7.758 3.103-7.758 7.758s3.103 7.758 7.758 7.758h22.497v38.788C99.297 79.127 24.048 170.667 24.048 279.273 24.048 408.048 128 512 256 512s231.952-103.952 231.952-231.952c0-108.606-75.249-200.145-176.097-225.745zm-96.194-38.788h80.679V51.2c-27.151-4.655-53.527-4.655-80.679 0V15.515zM256 496.485c-119.467 0-216.436-96.97-216.436-216.436S136.533 63.612 256 63.612s216.436 96.97 216.436 216.436S375.467 496.485 256 496.485z"/></symbol><symbol viewBox="0 0 444.819 444.819" id="down" xmlns="http://www.w3.org/2000/svg"><path d="M434.252 114.203l-21.409-21.416c-7.419-7.04-16.084-10.561-25.975-10.561-10.095 0-18.657 3.521-25.7 10.561L222.41 231.549 83.653 92.791c-7.042-7.04-15.606-10.561-25.697-10.561-9.896 0-18.559 3.521-25.979 10.561l-21.128 21.416C3.615 121.436 0 130.099 0 140.188c0 10.277 3.619 18.842 10.848 25.693l185.864 185.865c6.855 7.23 15.416 10.848 25.697 10.848 10.088 0 18.75-3.617 25.977-10.848l185.865-185.865c7.043-7.044 10.567-15.608 10.567-25.693.001-9.901-3.523-18.559-10.566-25.985z"/></symbol><symbol viewBox="0 0 512 512" id="email" xmlns="http://www.w3.org/2000/svg"><path d="M255 0C114.06 0 0 114.05 0 255c0 139.895 113.025 257 255 257 140.644 0 257-115.914 257-257C512 112.87 394.743 0 255 0zm0 482.2C130.935 482.2 29.8 380.168 29.8 255 29.8 130.935 130.935 29.8 255 29.8c125.168 0 227.2 101.135 227.2 225.2 0 125.168-102.032 227.2-227.2 227.2z"/><path d="M255 90c-90.981 0-165 74.019-165 165 0 91.323 73.867 167 165 167 36.874 0 74.175-12.393 102.339-34.001 6.573-5.043 7.813-14.459 2.77-21.032-5.043-6.573-14.46-7.813-21.032-2.77C316.048 381.866 285.403 392.2 255 392.2c-74.439 0-135-61.658-135-137.2 0-74.439 60.561-135.2 135-135.2 75.542 0 137 60.761 137 135.2v15c0 16.542-13.458 30-30 30s-30-13.458-30-30v-75c0-8.284-6.716-15-15-15s-15 6.716-15 15v.951C288.454 185.622 272.068 180 255 180c-41.355 0-75 33.645-75 75s33.645 75 75 75c22.423 0 43.059-9.622 57.735-25.812C323.583 319.772 341.615 330 362 330c33.084 0 60-26.916 60-60v-15c0-91.254-75.79-165-167-165zm0 210.2c-24.813 0-45-20.387-45-45.2s20.187-45.2 45-45.2c25.477 0 47 20.807 47 45.2s-21.523 45.2-47 45.2z"/></symbol><symbol viewBox="0 0 90 90" id="facebook" xmlns="http://www.w3.org/2000/svg"><path d="M90 15.001C90 7.119 82.884 0 75 0H15C7.116 0 0 7.119 0 15.001v59.998C0 82.881 7.116 90 15.001 90H45V56H34V41h11v-5.844C45 25.077 52.568 16 61.875 16H74v15H61.875C60.548 31 59 32.611 59 35.024V41h15v15H59v34h16c7.884 0 15-7.119 15-15.001V15.001z"/></symbol><symbol viewBox="0 0 31.416 31.416" id="global" xmlns="http://www.w3.org/2000/svg"><path d="M28.755 6.968l-.47.149-2.503.223-.707 1.129-.513-.163L22.57 6.51l-.289-.934-.387-.996-1.252-1.123-1.477-.289-.034.676 1.447 1.412.708.834-.796.416-.648-.191-.971-.405.033-.783-1.274-.524-.423 1.841-1.284.291.127 1.027 1.673.322.289-1.641 1.381.204.642.376h1.03l.705 1.412 1.869 1.896-.137.737-1.507-.192-2.604 1.315-1.875 2.249-.244.996h-.673l-1.254-.578-1.218.578.303 1.285.53-.611.932-.029-.065 1.154.772.226.771.866 1.259-.354 1.438.227 1.67.449.834.098 1.414 1.605 2.729 1.605-1.765 3.372-1.863.866-.707 1.927-2.696 1.8-.287 1.038c6.892-1.66 12.019-7.851 12.019-15.253a15.639 15.639 0 0 0-2.66-8.739z"/><path d="M17.515 23.917l-1.144-2.121 1.05-2.188-1.05-.314-1.179-1.184-2.612-.586-.867-1.814v1.077h-.382L9.08 13.735v-2.507L7.43 8.545l-2.62.467H3.045l-.888-.582 1.133-.898-1.13.261a15.61 15.61 0 0 0-2.156 7.916c0 8.673 7.031 15.707 15.705 15.707.668 0 1.323-.059 1.971-.137l-.164-1.903s.721-2.826.721-2.922c-.001-.097-.722-2.537-.722-2.537zM5.84 5.065l2.79-.389 1.286-.705 1.447.417 2.312-.128.792-1.245 1.155.19 2.805-.263.773-.852 1.09-.728 1.542.232.562-.085A15.65 15.65 0 0 0 15.708 0 15.662 15.662 0 0 0 3.596 5.711h.008l2.236-.646zm10.532-3.503l1.604-.883 1.03.595-1.491 1.135-1.424.143-.641-.416.922-.574zm-4.751.129l.708.295.927-.295.505.875-2.14.562-1.029-.602c-.001 0 1.006-.648 1.029-.835z"/></symbol><symbol viewBox="0 0 51.997 51.997" id="heart" xmlns="http://www.w3.org/2000/svg"><path d="M51.911 16.242c-.759-8.354-6.672-14.415-14.072-14.415-4.93 0-9.444 2.653-11.984 6.905-2.517-4.307-6.846-6.906-11.697-6.906C6.759 1.826.845 7.887.087 16.241c-.06.369-.306 2.311.442 5.478 1.078 4.568 3.568 8.723 7.199 12.013l18.115 16.439 18.426-16.438c3.631-3.291 6.121-7.445 7.199-12.014.748-3.166.502-5.108.443-5.477zm-2.39 5.019c-.984 4.172-3.265 7.973-6.59 10.985L25.855 47.481 9.072 32.25c-3.331-3.018-5.611-6.818-6.596-10.99-.708-2.997-.417-4.69-.416-4.701l.015-.101c.65-7.319 5.731-12.632 12.083-12.632 4.687 0 8.813 2.88 10.771 7.515l.921 2.183.921-2.183c1.927-4.564 6.271-7.514 11.069-7.514 6.351 0 11.433 5.313 12.096 12.727.002.016.293 1.71-.415 4.707z"/></symbol><symbol viewBox="0 0 43.006 43.006" id="improvement" xmlns="http://www.w3.org/2000/svg"><path d="M25.888.034c1.397.286 2.73.698 4 1.222a21.546 21.546 0 0 1 3.73 1.984c.524.349.667 1.048.317 1.555-.048.063-.079.127-.143.175a3.062 3.062 0 0 0-.809 2.079c.016.762.317 1.508.889 2.095a2.962 2.962 0 0 0 2.079.873 2.986 2.986 0 0 0 2.111-.825 1.106 1.106 0 0 1 1.571.048c.048.048.095.095.127.143a23.446 23.446 0 0 1 2 3.73 22.977 22.977 0 0 1 1.222 4.048c.127.603-.27 1.19-.873 1.317-.063.016-.127.016-.19.016-.81.032-1.54.365-2.079.921a2.977 2.977 0 0 0-.841 2.095c0 .81.317 1.555.841 2.095.54.54 1.27.889 2.079.905a1.105 1.105 0 0 1 1.079 1.143c0 .079 0 .159-.016.238a22.075 22.075 0 0 1-1.222 4 22.774 22.774 0 0 1-2 3.73 1.105 1.105 0 0 1-1.54.317c-.063-.048-.127-.095-.175-.143a3.102 3.102 0 0 0-2.095-.81 2.98 2.98 0 0 0-2.079.889 3.05 3.05 0 0 0-.889 2.079c0 .762.27 1.524.825 2.111a1.105 1.105 0 0 1-.032 1.571c-.048.048-.095.095-.159.127a21.546 21.546 0 0 1-3.73 1.984c-1.286.54-2.635.952-4.047 1.238-.603.111-1.19-.27-1.302-.873a.787.787 0 0 1-.032-.19 2.991 2.991 0 0 0-.905-2.079 3.006 3.006 0 0 0-2.095-.841 2.977 2.977 0 0 0-3 2.92 1.115 1.115 0 0 1-1.381 1.047 20.946 20.946 0 0 1-4-1.222 20.979 20.979 0 0 1-3.73-1.984 1.11 1.11 0 0 1-.317-1.556.635.635 0 0 1 .127-.159 2.955 2.955 0 0 0 .809-2.095c0-.746-.302-1.508-.873-2.079a3.009 3.009 0 0 0-2.079-.889c-.762 0-1.524.27-2.111.825a1.125 1.125 0 0 1-1.587-.032c-.048-.048-.079-.111-.111-.159a21.62 21.62 0 0 1-2-3.73c0-.016-.016-.032-.016-.063A21.033 21.033 0 0 1 .03 25.841c-.127-.603.27-1.19.873-1.317.063 0 .127-.016.19-.016a2.955 2.955 0 0 0 2.063-.905 2.95 2.95 0 0 0 .857-2.095c0-.825-.317-1.556-.857-2.095a2.972 2.972 0 0 0-2.063-.921 1.104 1.104 0 0 1-1.095-1.127c0-.095.016-.159.032-.238.286-1.397.698-2.73 1.222-4.016a22.185 22.185 0 0 1 2-3.73 1.12 1.12 0 0 1 1.54-.317c.063.048.127.095.175.143a2.934 2.934 0 0 0 2.095.81c.746 0 1.492-.302 2.079-.873a3 3 0 0 0 .873-2.095 2.908 2.908 0 0 0-.825-2.095 1.143 1.143 0 0 1 .049-1.587c.048-.048.095-.079.159-.127a20.979 20.979 0 0 1 3.73-1.984A21.012 21.012 0 0 1 17.174.034c.603-.127 1.19.27 1.302.873.016.063.016.127.032.19.016.809.365 1.54.905 2.063a2.99 2.99 0 0 0 2.095.857 3.02 3.02 0 0 0 2.095-.857c.54-.524.889-1.254.905-2.063a1.118 1.118 0 0 1 1.38-1.063zm-4.381 10.809c2.936 0 5.603 1.19 7.539 3.127a10.625 10.625 0 0 1 3.111 7.539 10.68 10.68 0 0 1-3.111 7.539 10.68 10.68 0 0 1-7.539 3.111c-2.952 0-5.603-1.19-7.539-3.111-1.921-1.936-3.127-4.603-3.127-7.539 0-2.952 1.206-5.619 3.127-7.539a10.598 10.598 0 0 1 7.539-3.127zm5.952 4.714a8.412 8.412 0 0 0-5.952-2.476 8.383 8.383 0 0 0-5.952 2.476 8.37 8.37 0 0 0-2.46 5.952c0 2.317.936 4.428 2.46 5.952a8.37 8.37 0 0 0 5.952 2.46 8.398 8.398 0 0 0 8.412-8.412 8.37 8.37 0 0 0-2.46-5.952zm1.572-12.238a20.057 20.057 0 0 0-2.492-.841 5.283 5.283 0 0 1-1.381 2.286 5.212 5.212 0 0 1-3.651 1.492 5.185 5.185 0 0 1-3.651-1.492 5.135 5.135 0 0 1-1.381-2.286c-.857.222-1.682.508-2.492.841a20.64 20.64 0 0 0-2.381 1.175c.444.81.667 1.698.651 2.587a5.22 5.22 0 0 1-1.524 3.635 5.203 5.203 0 0 1-3.651 1.54 5.171 5.171 0 0 1-2.587-.651 20.887 20.887 0 0 0-1.175 2.381c-.333.81-.619 1.635-.841 2.492.889.254 1.667.73 2.286 1.365a5.25 5.25 0 0 1 1.492 3.667 5.243 5.243 0 0 1-1.492 3.651 5.344 5.344 0 0 1-2.286 1.381c.222.825.492 1.651.825 2.429 0 .032.016.048.016.063.349.825.73 1.603 1.175 2.365a5.165 5.165 0 0 1 2.587-.635 5.257 5.257 0 0 1 3.651 1.524c1 1 1.508 2.317 1.524 3.635a5.13 5.13 0 0 1-.651 2.587c.762.444 1.555.841 2.381 1.175.809.333 1.635.619 2.492.857a5.106 5.106 0 0 1 1.381-2.302 5.214 5.214 0 0 1 7.302 0 5.246 5.246 0 0 1 1.381 2.302 23.186 23.186 0 0 0 2.492-.857c.825-.333 1.619-.73 2.365-1.175a5.286 5.286 0 0 1-.635-2.587 5.22 5.22 0 0 1 1.524-3.635c1-1 2.317-1.508 3.635-1.524a5.075 5.075 0 0 1 2.587.635c.444-.762.841-1.54 1.19-2.365.333-.81.619-1.651.841-2.492a5.328 5.328 0 0 1-2.301-1.381 5.227 5.227 0 0 1-1.476-3.651c0-1.429.556-2.714 1.476-3.667a5.309 5.309 0 0 1 2.301-1.365 20.287 20.287 0 0 0-.841-2.508 21.971 21.971 0 0 0-1.19-2.365 5.102 5.102 0 0 1-2.587.651 5.168 5.168 0 0 1-3.635-1.54c-1-1-1.508-2.317-1.524-3.635a5.326 5.326 0 0 1 .635-2.587 17.416 17.416 0 0 0-2.365-1.175z"/></symbol><symbol viewBox="0 0 543.707 543.707" id="individuality" xmlns="http://www.w3.org/2000/svg"><path d="M278.93 34.895c-8.062-13.741-18.992-21.315-30.792-21.315-12.451 0-23.792 8.654-31.107 23.734L5.365 473.383c-7.066 14.555-7.153 28.65-.258 39.656 6.904 11.016 19.613 17.088 35.802 17.088h463.78c16.344 0 28.783-5.996 35.029-16.896 6.244-10.893 5.125-24.652-3.137-38.758L278.93 34.895zM142.721 372.002l16.074 25.217 24.433-.059c8.778 0 8.778 11.447 0 11.447h-28.286c-2.132.047-4.427-1.004-6.101-3.652l-9.515-14.908-19.622 19.439 18.188 9.582c7.478 3.586 6.369 10.146 6.369 10.146v41.223c0 4.668-3.777 8.473-8.454 8.473-4.667 0-8.434-3.814-8.434-8.473v-32.98L95.836 419.92c-3.758-2.084-6.321-6.131-6.321-10.711 0-3.145 1.167-6.033 3.156-8.186l30.973-31.029c3.815-4.342 9.189-3.645 9.189-3.645 6.484-.007 9.888 5.653 9.888 5.653zm-3.06-13.541c0-8.07 6.579-14.641 14.649-14.641 8.081 0 14.65 6.58 14.65 14.641 0 8.08-6.569 14.621-14.65 14.621-8.07.01-14.64-6.541-14.649-14.621zm53.502 65.896c22.013 0 39.904 17.834 39.904 39.912 0 22.07-17.891 39.934-39.904 39.934-22.042 0-39.942-17.844-39.942-39.934.009-22.078 17.901-39.912 39.942-39.912zm-74.692 39.913c0 22.07-17.873 39.934-39.952 39.934-21.994 0-39.895-17.854-39.895-39.934 0-22.061 17.901-39.912 39.895-39.912 22.07-.001 39.952 17.833 39.952 39.912zm-3.185-173.53l12.527-25.81 130.796 63.515 126.493-74.579 14.506 24.749-125.984 74.291v158.105h-28.688V353.689l-129.65-62.949zm191.833-152.293c5.957-.373 11.074 4.026 11.504 9.945.422 5.929-4.025 11.073-9.955 11.503l-48.166 3.481-5.489 25.838c.201.172 2.505 2.237 3.787 3.27a72.597 72.597 0 0 1 2.955 2.496c-5.604 5.958-9.046 13.933-9.046 22.74 0 2.811.373 5.518 1.033 8.128l-14.812 9.362c-.182.096-2.065.096-2.295-.029l-18.981-12.316c-5.728-3.729-14.803-3.682-20.493.086l-18.561 12.23c-.058 0-1.31 0-1.463-.077l-17.25-12.756c7.42-5.078 46.493-17.92 72.178-26.058-.096-1.052-.086-2.132.144-3.213l8.95-42.084a10.78 10.78 0 0 1 9.754-8.492l56.206-4.054zm7.039 79.264c0 2.18-.268 4.284-.736 6.321l-17.193 11.15s-.221.057-.594.057c-.439 0-.766-.095-.852-.143l-15.289-11.523c-5.613-4.227-14.66-4.609-20.627-.851l-.583.373a28.69 28.69 0 0 1-.535-5.384c0-15.577 12.632-28.2 28.208-28.2 15.578 0 28.201 12.632 28.201 28.2zm-139.508 25.57c1.271.947 3.92 1.014 5.25.143l18.561-12.25c4.781-3.146 12.001-3.184 16.801-.067l19.01 12.345c1.454.937 4.427.957 5.9.039l19.756-12.489c4.924-3.108 12.154-2.802 16.812.698l15.357 11.562c1.262.956 3.9 1.042 5.23.182l19.01-12.326c5.002-3.251 12.23-2.821 16.811 1.004l18.408 15.338a5.048 5.048 0 0 1 .641 7.114 5.07 5.07 0 0 1-3.893 1.817 5.001 5.001 0 0 1-3.232-1.167l-18.406-15.357c-1.168-.975-3.559-1.109-4.83-.287l-19.01 12.335c-4.916 3.194-12.145 2.936-16.811-.593l-15.348-11.561c-1.272-.976-3.969-1.081-5.336-.22l-19.756 12.479c-4.8 3.022-12.01 2.984-16.792-.105l-19.01-12.335c-1.435-.928-4.322-.918-5.738.028l-18.561 12.23c-4.887 3.232-12.125 3.031-16.83-.44l-21.181-15.663a5.045 5.045 0 0 1-1.062-7.057 5.045 5.045 0 0 1 7.067-1.062l21.182 15.665zm220.569 201.942s3.721 3.461 1.598 10.355l-9.936 44.322c-.785 3.824-4.199 6.732-8.262 6.732-4.648 0-8.445-3.787-8.445-8.443 0-.746.078-1.455.277-2.123l8.168-36.348-20.129-19.574-17.328 19.336s-2.82 3.432-10.252 3.184l-35.123.066c-3.93.049-7.496-2.609-8.395-6.598a8.332 8.332 0 0 1 6.311-10.012 9.301 9.301 0 0 1 2.143-.191l30.217.086 44.695-51.818-11.686-.068-20.291 23.447c-1.195 1.473-3.021 2.381-5.068 2.381a6.545 6.545 0 0 1-6.561-6.549 6.6 6.6 0 0 1 2.199-4.936l21.879-25.197c1.225-1.434 3.033-2.361 5.068-2.361l31.682-.02c2.324 0 4.398.947 5.928 2.43l20.207 20.186 16.734-16.705c1.156-1.004 2.686-1.588 4.34-1.588a6.776 6.776 0 0 1 6.789 6.779 6.712 6.712 0 0 1-1.51 4.285l-20.195 20.33c-6.121 6.109-11.035.928-11.035.928l-12.385-12.432-19.353 22.377 17.719 17.739zm-1.903-76.569c0-8.701 7.076-15.748 15.777-15.748 8.693 0 15.76 7.047 15.76 15.748 0 8.703-7.057 15.779-15.76 15.779-8.7.001-15.777-7.076-15.777-15.779z"/></symbol><symbol viewBox="0 0 169.063 169.063" id="instagram" xmlns="http://www.w3.org/2000/svg"><path d="M122.406 0H46.654C20.929 0 0 20.93 0 46.655v75.752c0 25.726 20.929 46.655 46.654 46.655h75.752c25.727 0 46.656-20.93 46.656-46.655V46.655C169.063 20.93 148.133 0 122.406 0zm31.657 122.407c0 17.455-14.201 31.655-31.656 31.655H46.654C29.2 154.063 15 139.862 15 122.407V46.655C15 29.201 29.2 15 46.654 15h75.752c17.455 0 31.656 14.201 31.656 31.655v75.752z"/><path d="M84.531 40.97c-24.021 0-43.563 19.542-43.563 43.563 0 24.02 19.542 43.561 43.563 43.561s43.563-19.541 43.563-43.561c0-24.021-19.542-43.563-43.563-43.563zm0 72.123c-15.749 0-28.563-12.812-28.563-28.561 0-15.75 12.813-28.563 28.563-28.563s28.563 12.813 28.563 28.563c0 15.749-12.814 28.561-28.563 28.561zm45.39-84.842c-2.89 0-5.729 1.17-7.77 3.22a11.053 11.053 0 0 0-3.23 7.78c0 2.891 1.18 5.73 3.23 7.78 2.04 2.04 4.88 3.22 7.77 3.22 2.9 0 5.73-1.18 7.78-3.22 2.05-2.05 3.22-4.89 3.22-7.78 0-2.9-1.17-5.74-3.22-7.78-2.04-2.05-4.88-3.22-7.78-3.22z"/></symbol><symbol viewBox="0 0 284.935 284.936" id="left" xmlns="http://www.w3.org/2000/svg"><path d="M110.488 142.468L222.694 30.264c1.902-1.903 2.854-4.093 2.854-6.567s-.951-4.664-2.854-6.563L208.417 2.857C206.513.955 204.324 0 201.856 0c-2.475 0-4.664.955-6.567 2.857L62.24 135.9c-1.903 1.903-2.852 4.093-2.852 6.567 0 2.475.949 4.664 2.852 6.567l133.042 133.043c1.906 1.906 4.097 2.857 6.571 2.857 2.471 0 4.66-.951 6.563-2.857l14.277-14.267c1.902-1.903 2.851-4.094 2.851-6.57 0-2.472-.948-4.661-2.851-6.564L110.488 142.468z"/></symbol><symbol viewBox="0 0 512 512" id="location" xmlns="http://www.w3.org/2000/svg"><path d="M446.812 493.966l-67.499-142.781a12.633 12.633 0 0 0-6.48-6.223l-33.58-14.949 58.185-97.518c.139-.234.27-.471.395-.713 11.568-22.579 17.434-46.978 17.434-72.515 0-42.959-16.846-83.233-47.435-113.402C337.248 15.703 296.73-.588 253.745.016c-41.748.579-81.056 17.348-110.685 47.22-29.626 29.87-46.078 69.313-46.326 111.066-.152 25.515 5.877 50.923 17.431 73.479.124.241.255.479.394.713l58.184 97.517-33.774 15.031a12.626 12.626 0 0 0-6.285 6.142L65.187 493.966a12.635 12.635 0 0 0 16.56 16.941l84.558-37.646 84.558 37.646a12.644 12.644 0 0 0 10.277 0l84.558-37.646 84.558 37.646a12.63 12.63 0 0 0 16.556-16.941zm-310.339-274.06c-9.73-19.132-14.599-39.805-14.47-61.453.428-72.429 59.686-132.17 132.094-133.173 36.166-.486 70.263 13.199 95.993 38.576 25.738 25.383 39.911 59.267 39.911 95.412 0 21.359-4.869 41.757-14.473 60.638L266.85 402.054c-3.318 5.56-8.692 6.16-10.849 6.16-2.158 0-7.532-.6-10.849-6.16L136.473 219.906zm214.361 227.985a12.644 12.644 0 0 0-10.277 0l-84.558 37.646-84.558-37.646a12.644 12.644 0 0 0-10.277 0l-58.578 26.08 50.938-107.749 32.258-14.356 37.668 63.133c6.904 11.572 19.072 18.481 32.547 18.481 13.475 0 25.643-6.909 32.547-18.48l37.668-63.133 32.261 14.361 50.935 107.744-58.574-26.081z"/><path d="M256.004 101.607c-31.794 0-57.659 25.865-57.659 57.658s25.865 57.658 57.659 57.658c31.793.001 57.658-25.865 57.658-57.658s-25.865-57.658-57.658-57.658zm0 90.05c-17.861.001-32.393-14.529-32.393-32.392 0-17.861 14.531-32.392 32.393-32.392 17.861 0 32.392 14.531 32.392 32.392s-14.531 32.392-32.392 32.392z"/></symbol><symbol viewBox="0 0 800 800" id="logo" xmlns="http://www.w3.org/2000/svg"><path d="M60.676 647.238l45.742-45.742 46.789 47.568c.997 1.01 2.128 1.786 3.305 2.453l10.822-30.738-50.168-50.998a14.939 14.939 0 0 0-10.597-4.465c-3.784.334-7.814 1.561-10.634 4.381l-56.401 56.396c-5.841 5.841-5.841 15.303 0 21.145 5.839 5.84 15.301 5.84 21.142 0z"/><path d="M628.721 352.27a14.946 14.946 0 0 0-14.067-9.888 14.943 14.943 0 0 0-14.068 9.888l-51.003 141.773-82.773-230.044c-2.131-5.941-7.76-9.896-14.067-9.896s-11.937 3.955-14.067 9.896l-83.724 232.714-51.912-144.276a14.941 14.941 0 0 0-14.068-9.896 14.939 14.939 0 0 0-14.067 9.896l-99.548 276.687c-.021-.025-.038-.051-.059-.066l-23.801 66.901s-24.235.3-30.994.367V672.63l21.044 21.393 11.056-31.397-35.437-36.029a14.942 14.942 0 0 0-10.597-4.464c-3.784.092-7.814 1.561-10.634 4.381L39.534 682.91c-5.841 5.841-5.841 15.311 0 21.144 5.841 5.841 15.303 5.841 21.144 0l29.921-29.921v36.671c-.008.251-.067.483-.067.743.084 8.201 6.763 14.802 14.948 14.802h.154c17.435-.184 34.891-.259 52.338-.409 43.264-.358 86.498-.617 129.744-.775 45.008-.158 89.915-.217 134.751-.158 19.847.024 39.68.058 59.477.125 44.811.15 89.418.417 133.832.793-.667.174-1.359.232-2.053.316h128.276a14.93 14.93 0 0 0 12.232-6.357 14.929 14.929 0 0 0 1.836-13.66L628.721 352.27zm-14.068 49.229l21.781 60.544-21.928 25.191-21.97-24.266 22.117-61.469zm-161.911-88.271l31.189 86.686-32.403 35.771-31.002-32.917 32.216-89.54zm-163.771 88.429l21.979 61.087-21.323 24.49-22.504-24.857 21.848-60.72zM282.834 696.5H182.89l.238-.658 72.525-201.582 23.104 25.523a14.94 14.94 0 0 0 11.085 4.924h.146a14.945 14.945 0 0 0 11.131-5.141l21.423-24.606 16.517 45.917L282.834 696.5zm193.889.051h-161.89l.017-.051h-.238l40.339-111.459 15.887-44.164 38.332-106.544 31.69 33.634a14.953 14.953 0 0 0 10.885 4.707h.146a14.971 14.971 0 0 0 10.935-4.915l32.579-35.971 38.285 106.419 15.892 44.164 40.772 114.18H476.723zm172.987-.217h-27.653L565.47 538.207l15.599-43.355 22.57 24.932a14.939 14.939 0 0 0 11.085 4.924h.146a14.949 14.949 0 0 0 11.131-5.141l22.027-25.299 72.709 202.066H649.71z"/><path d="M60.676 590.424l45.742-45.742 46.789 47.569a14.892 14.892 0 0 0 10.66 4.464 14.91 14.91 0 0 0 10.484-4.289c5.887-5.791 5.966-15.261.176-21.144l-57.361-58.315a14.943 14.943 0 0 0-10.597-4.465c-3.784-.225-7.814 1.553-10.634 4.373l-56.401 56.404c-5.841 5.842-5.841 15.313 0 21.145 5.839 5.84 15.301 5.84 21.142 0zm42.416-312.616c29.78 0 54.01-24.231 54.01-54.011 0-29.779-24.23-54.01-54.01-54.01s-54.01 24.231-54.01 54.01c0 29.78 24.231 54.011 54.01 54.011zm0-78.116c13.292 0 24.106 10.813 24.106 24.105s-10.814 24.106-24.106 24.106c-13.292 0-24.106-10.814-24.106-24.106s10.815-24.105 24.106-24.105zm488.386-97.324h.267c.476.017 43.063-.517 66.568 22.979a14.307 14.307 0 0 0 10.159 4.205c.834 0 1.668-.1 2.503-.233.817.133 1.651.233 2.503.233 3.672 0 7.343-1.402 10.146-4.205 23.379-23.38 65.684-22.996 66.551-22.979 7.961.208 14.486-6.091 14.67-14.018.184-7.918-6.092-14.494-14.019-14.677-2.053-.092-47.493-.743-79.852 24.69-32.379-25.416-77.829-24.707-79.856-24.69-7.918.184-14.176 6.733-14.01 14.644.168 7.826 6.577 14.051 14.37 14.051zm-96.707 68.813c.326 0 32.342-.284 50.039 21.811 2.828 3.538 7 5.382 11.215 5.382.667 0 1.326-.234 1.985-.334.676.1 1.327.334 2.003.334 4.205 0 8.377-1.844 11.214-5.382 17.655-22.053 49.329-21.861 50.089-21.803 7.852.217 14.484-6.024 14.711-13.935.232-7.927-6-14.535-13.936-14.761-1.693-.066-37.348-.709-64.081 22.988-26.726-23.688-62.362-23.021-64.082-22.988-7.918.226-14.151 6.834-13.926 14.761.233 7.919 6.9 14.444 14.769 13.927z"/></symbol><symbol viewBox="0 0 54 54" id="map" xmlns="http://www.w3.org/2000/svg"><path d="M53.516 1.143a.999.999 0 0 0-.983-.027L36 9.869 19.468 1.116c-.013-.007-.028-.009-.041-.015a1.004 1.004 0 0 0-.147-.055c-.028-.008-.055-.017-.083-.023a1.04 1.04 0 0 0-.168-.017c-.025-.001-.05-.004-.076-.003a.968.968 0 0 0-.16.025c-.03.006-.06.01-.089.019l-.02.004-18 6A1 1 0 0 0 0 8v43a1 1 0 0 0 1.316.948l17.646-5.882 16.657 6.859c.014.006.03.004.044.009.11.039.222.066.337.066a1 1 0 0 0 .266-.039c.028-.008.054-.021.082-.031.04-.015.082-.026.12-.046l17-9c.327-.173.532-.514.532-.884V2c0-.351-.184-.676-.484-.857zM2 8.721l16-5.333V30.38c-.43.078-.854.166-1.264.274a1 1 0 1 0 .513 1.934c.24-.064.502-.096.751-.148v11.84L2 49.612V8.721zM20 32.16c.321-.025.632-.066.961-.073a1.001 1.001 0 0 0-.021-2h-.022c-.31.007-.615.024-.918.045V3.661l15 7.941v21.194a14.952 14.952 0 0 1-2.201-.262 1 1 0 0 0-.38 1.963 16.99 16.99 0 0 0 2.582.289v15.721L20 44.33V32.16zm32 10.237l-15 7.941v-15.66a.993.993 0 0 0 .587-.98.994.994 0 0 0-.587-.821V11.602l15-7.941v38.736z"/><path d="M11 9c-2.757 0-5 2.243-5 5a5.009 5.009 0 0 0 4 4.899V21a1 1 0 1 0 2 0v-2.101A5.009 5.009 0 0 0 16 14c0-2.757-2.243-5-5-5zm0 8c-1.654 0-3-1.346-3-3s1.346-3 3-3 3 1.346 3 3-1.346 3-3 3zm34.07 10.673a1 1 0 0 0 1.296-.568c.47-1.199.847-2.553 1.123-4.024a1 1 0 0 0-.799-1.167 1.008 1.008 0 0 0-1.167.8c-.252 1.348-.595 2.58-1.019 3.663a1.001 1.001 0 0 0 .566 1.296zm-32.265 4.669a13.87 13.87 0 0 0-3.235 2.82 1 1 0 0 0 1.529 1.289 11.833 11.833 0 0 1 2.768-2.414 1.001 1.001 0 0 0-1.062-1.695zm-4.178 5.934a1 1 0 0 0-1.327.489c-1.026 2.226-1.28 4.023-1.291 4.099a.998.998 0 0 0 .992 1.135c.491 0 .919-.362.99-.861.002-.016.231-1.597 1.125-3.534a1.002 1.002 0 0 0-.489-1.328zm31.796-4.547a.998.998 0 0 0 .454-.109 10.419 10.419 0 0 0 3.384-2.786 1 1 0 1 0-1.56-1.252 8.414 8.414 0 0 1-2.735 2.257 1 1 0 0 0 .457 1.89zM29.17 31.432a12.399 12.399 0 0 1-.716-.322.996.996 0 0 0-.205-.078 32.59 32.59 0 0 0-3.173-.654.999.999 0 1 0-.302 1.977c.926.142 1.893.34 2.877.59.134.064.39.185.748.334a.999.999 0 0 0 1.308-.537 1 1 0 0 0-.537-1.31zm17.753-11.501l.065.002a1 1 0 0 0 .997-.937c.062-.961.093-1.978.093-3.02 0-.347-.003-.699-.01-1.058-.01-.553-.49-.973-1.018-.982a1 1 0 0 0-.982 1.018c.006.347.01.688.01 1.022 0 1-.03 1.973-.089 2.893a1 1 0 0 0 .934 1.062zm-38.63 8.776a.997.997 0 0 0 1.414 0L11 27.414l1.293 1.293a.997.997 0 0 0 1.414 0 .999.999 0 0 0 0-1.414L12.414 26l1.293-1.293a.999.999 0 1 0-1.414-1.414L11 24.586l-1.293-1.293a.999.999 0 1 0-1.414 1.414L9.586 26l-1.293 1.293a.999.999 0 0 0 0 1.414z"/></symbol><symbol viewBox="0 0 512 512" id="phone" xmlns="http://www.w3.org/2000/svg"><path d="M256 32c123.5 0 224 100.5 224 224S379.5 480 256 480 32 379.5 32 256 132.5 32 256 32m0-32C114.625 0 0 114.625 0 256s114.625 256 256 256 256-114.625 256-256S397.375 0 256 0zm142.719 341.594l-1.438-4.375c-3.375-10.062-14.5-20.562-24.75-23.375L334.688 303.5c-10.25-2.781-24.875.969-32.405 8.5l-13.688 13.688c-49.75-13.469-88.781-52.5-102.219-102.25l13.688-13.688c7.5-7.5 11.25-22.125 8.469-32.406L198.219 139.5c-2.781-10.25-13.344-21.375-23.406-24.75l-4.313-1.438c-10.094-3.375-24.5.031-32 7.563l-20.5 20.5c-3.656 3.625-6 14.031-6 14.063-.688 65.063 24.813 127.719 70.813 173.75 45.875 45.875 108.313 71.345 173.156 70.781.344 0 11.063-2.281 14.719-5.938l20.5-20.5c7.5-7.469 10.874-21.875 7.531-31.937z"/></symbol><symbol viewBox="0 0 193.921 193.921" id="plane" xmlns="http://www.w3.org/2000/svg"><path d="M193.887 111.272a4.93 4.93 0 0 0-2.617-3.805l-.194-.091c-.447-.187-11.015-4.581-17.491-5.49-1.228-.173-2.52.068-3.704.661l-21.749 7.706c-4.243-2.182-20.33-10.448-39.28-20.116l44.797-23.602c1.317-.694 2.084-1.884 2.049-3.183-.034-1.298-.862-2.445-2.215-3.068l-15.1-6.964c-1.449-.668-3.752-.932-5.345-.592L64.221 67.516C50.06 60.409 38.373 54.646 33.5 52.492c-3.577-1.581-7.926-2.378-12.925-2.378-8.249 0-18.341 2.371-20.206 5.87-.073.134-4.997 14.742 23.441 31.09l106.053 54.043c.106.05 2.635 1.316 5.095 1.748 4.163.731 8.671.943 13.308.943h3.659v-.148c3 0 5.204-1.298 5.558-1.543l34.687-26.439.082-.099c1.235-1.068 1.821-2.676 1.635-4.307zm-41.965 29.723h.001v.016l-.001-.016z"/></symbol><symbol viewBox="0 0 463.561 463.561" id="rafting" xmlns="http://www.w3.org/2000/svg"><path d="M290.408 274.547c-4.054 19.031-67.3 30.643-96.839 20.121-21.663-7.72-14.26-31.313-14.26-31.313l-32.52-.058s-6.146 14.443-30.031 8.708c2.395 35.907 56.807 58.116 130.596 72.598 73.785 14.482 134.968 8.565 136.646-13.216 1.391-17.982-38.212-41.154-93.592-56.84z"/><path d="M439.94 221.908s-61.669 1.277-74.835 20.309h-14.182c-5.638-8.978-11.268-17.899-17.994-26.129-4.953-6.064-10.509-12.281-17.35-16.296-9.888-5.806-21.54-8.546-32.63-11.014-6.01-1.336-33.474-5.649-49.447-5.649-15.972 0-32.23 2.267-34.905 2.747-6.181 1.111-12.34 2.351-18.445 3.8-6.241 1.479-12.469 3.143-18.487 5.37-3.809 1.408-7.675 3.014-11.072 5.269-7.469 4.954-13.489 11.788-18.948 18.825-3.681 4.748-7.11 9.691-10.383 14.73a266.94 266.94 0 0 0-4.137 6.595c-.354.579-.713 1.163-1.062 1.751H98.455c-13.166-19.032-74.835-20.309-74.835-20.309-17.225 0-23.62 12.5-23.62 27.916 0 15.418 6.396 27.916 23.62 27.916 0 0 61.669-1.277 74.835-20.309h17.057c2.456 4.485 7.131 7.741 12.718 7.827 4.541.072 8.97-1.992 11.817-5.535.587-.731 1.129-1.509 1.66-2.292h49.96v23.942c1.688 1.998 4.036 3.51 7.12 4.608 6.497 2.313 15.385 3.536 25.716 3.535 14.169 0 29.907-2.389 42.102-6.391 3.461-1.136 6.344-2.297 8.734-3.435v-22.26h49.976c.696 1.026 1.392 2.047 2.215 2.957 3.169 3.503 7.952 5.302 12.646 4.784 4.813-.536 9.148-3.491 11.431-7.741h13.499c13.166 19.032 74.835 20.309 74.835 20.309 17.226 0 23.62-12.498 23.62-27.916-.001-15.414-6.395-27.914-23.621-27.914zm-141.001 6.421c2.979 1.851 5.556 4.054 8.063 6.559 2.334 2.342 4.547 4.802 6.683 7.33h-38.347v-19.807c8.016 1.348 16.032 2.908 23.601 5.918zm-138.648 6.27c2.431-2.408 4.937-4.501 7.814-6.284 7.557-2.999 15.562-4.558 23.562-5.904v19.807h-38.344c2.225-2.632 4.523-5.195 6.968-7.619zm54.454-59.551a34.967 34.967 0 0 0 12.822 5.299l.049.01c11.328 2.2 23.244-1.449 31.415-9.599 8.289-8.274 11.928-20.504 9.518-31.963-2.356-11.163-10.25-20.719-20.788-25.103-10.778-4.485-23.352-3.242-33.035 3.283-9.688 6.526-15.554 17.712-15.444 29.394.105 11.412 6.005 22.312 15.463 28.679z"/></symbol><symbol viewBox="0 0 487.593 487.593" id="riding" xmlns="http://www.w3.org/2000/svg"><path d="M358.863 297.232l22.686-51.603c-4.118-.257-8.221-.77-12.29-1.788-23.681-5.94-41.382-24.564-53.669-44.665h-23.388a36.752 36.752 0 0 1-4.645 30.444l-46.354 70.688c-6.877 10.462-18.443 16.704-30.976 16.704a36.92 36.92 0 0 1-20.286-6.065c-17.064-11.2-21.821-34.195-10.621-51.243l22.783-34.762-26.246-12.105c-6.519-3.006-11.855-7.756-15.62-13.662h-15.335c-16.055 0-30.572 6.075-41.886 15.775-15.766-10.855-73.755-45.449-92.521 18.372-19.642 66.738 25.559 78.09-8.779 108.341a5.098 5.098 0 0 0-1.041 6.354 5.082 5.082 0 0 0 6.024 2.266c16.296-5.512 38.118-22.584 45.94-73.378 5.268-34.306 22.159-46.355 36.518-45.289-5.515 9.518-8.913 20.42-8.913 32.214 0 17.81 7.211 33.937 18.862 45.626l-24.709 37.766-1.312 1.989a16.494 16.494 0 0 0-2.663 9.934l5.944 108.078c.306 5.383 4.247 10.079 9.777 11.088 6.487 1.194 12.721-3.109 13.907-9.598l11.888-64.87 19.051 66.049c1.509 5.182 6.395 8.876 12.021 8.618 6.6-.295 11.695-5.872 11.405-12.465l-4.34-96.765 28.169-40.797h90.947l18.814 37.631-15.223 98.569c-.9 5.815 2.32 11.697 8.044 13.907 6.6 2.548 14.02-.736 16.565-7.337l31.277-80.951 15.495 79.188c1.154 5.914 6.523 10.215 12.692 9.871 6.761-.384 11.921-6.161 11.534-12.915l-9.526-169.214zM259.778 69.781c17 0 30.799-13.797 30.799-30.821 0-17.026-13.799-30.822-30.799-30.822-17.048 0-30.826 13.796-30.826 30.822 0 17.024 13.778 30.821 30.826 30.821z"/><path d="M479.632 137.745l-56.18-47.108 4.79-44.498a4.611 4.611 0 0 0-2.53-4.591 4.566 4.566 0 0 0-5.176.794l-25.778 24.66-18.368 41.116-29.113 43.672c8.365 21.102 20.512 40.955 33.988 44.313 6.873 1.713 15.508-.963 25.268-7.291l10.991-25.021 27.815 12.435c-25.973 28.552-48.9 40.66-68.065 35.788-29.165-7.29-46.869-53.67-53.617-79.725.788-2.707.993-5.615-.049-8.476-2.034-5.584-7.303-9.029-12.913-9.029a13.84 13.84 0 0 0-4.71.832L269.79 128.82l-12.242-27.006.013-.034a23.068 23.068 0 0 0-.596-17.808 23.064 23.064 0 0 0-13.107-12.075l-2.54-.92c-11.4-4.128-24.009 1.246-28.953 12.317-8.856 19.827-23.534 52.433-39.712 87.315-4.773 10.326-.253 22.559 10.078 27.335l43.535 20.077-33.23 50.682c-6.25 9.52-3.588 22.289 5.911 28.53a20.565 20.565 0 0 0 11.281 3.372c6.7 0 13.284-3.251 17.257-9.3l46.359-70.68c3.297-5.007 8.352-22.238-7.543-29.472-10.336-4.704-35.98-16.659-35.98-16.659l13.557-36.236c6.777 14.949 9.021 21.479 17.178 21.479 7.77 0 21.117-6 48.727-16.232 7.803 26.688 26.761 75.214 63.467 84.42a50.796 50.796 0 0 0 12.387 1.53c23.475 0 49.113-16.065 76.434-47.525 3.044.143 6.104-.265 9.004-1.371a22.255 22.255 0 0 0 12.387-11.737l2.196-4.902c4.052-9.095 1.599-19.783-6.026-26.175z"/></symbol><symbol viewBox="0 0 284.935 284.936" id="right" xmlns="http://www.w3.org/2000/svg"><path d="M222.701 135.9L89.652 2.857C87.748.955 85.557 0 83.084 0c-2.474 0-4.664.955-6.567 2.857L62.244 17.133c-1.906 1.903-2.855 4.089-2.855 6.567 0 2.478.949 4.664 2.855 6.567l112.204 112.204L62.244 254.677c-1.906 1.903-2.855 4.093-2.855 6.564 0 2.477.949 4.667 2.855 6.57l14.274 14.271c1.903 1.905 4.093 2.854 6.567 2.854 2.473 0 4.663-.951 6.567-2.854l133.042-133.044c1.902-1.902 2.854-4.093 2.854-6.567s-.945-4.664-2.847-6.571z"/></symbol><symbol viewBox="0 0 31.694 31.694" id="safety" xmlns="http://www.w3.org/2000/svg"><path d="M27.125 3.842C17.859 3.842 16.29.324 16.276.291A.464.464 0 0 0 15.85 0h-.006a.469.469 0 0 0-.426.283c-.013.037-1.616 3.559-10.849 3.559a.462.462 0 0 0-.462.461v15.764c0 6.453 11.085 11.383 11.553 11.59a.457.457 0 0 0 .188.037c.061 0 .126-.01.184-.037.473-.207 11.556-5.137 11.556-11.59V4.303a.463.463 0 0 0-.463-.461zM25.04 19.15c0 5.049-8.678 8.912-9.048 9.072a.32.32 0 0 1-.144.031.34.34 0 0 1-.148-.031c-.365-.16-9.043-4.023-9.043-9.072V6.811c0-.199.161-.363.361-.363 7.23 0 8.481-2.756 8.495-2.783a.366.366 0 0 1 .334-.223h.004a.36.36 0 0 1 .333.229c.011.025 1.239 2.777 8.494 2.777.201 0 .361.164.361.363l.001 12.339zm-1.731-.134c0 4.102-7.045 7.234-7.346 7.363a.234.234 0 0 1-.117.027c-.041 0-.117-20.141 0-20.141h.002a.291.291 0 0 1 .271.186c.008.02 1.006 2.254 6.895 2.254.164 0 .295.133.295.293v10.018z"/></symbol><symbol viewBox="0 0 25.811 25.811" id="ski" xmlns="http://www.w3.org/2000/svg"><circle cx="22.321" cy="2.313" r="2.313"/><path d="M17.183 2.936c1.035 0 2.561.632 2.561 2.157s-.978 4.333-.978 4.333 2.555 1.673 3.191 2.186c1.332 1.072.879 2.034-.904 1.281-2.895-1.222-4.254-1.825-4.472-2.588s-.025-2.311-.025-2.311l-1.673.695-7.078-5.202s-.65.462-.99.462c-.342 0-.75-.25-.75-.25l.787-1.057-.844-1.03 1.172.499c-.022 0 .725-.979.725-.979s.387.228.478.682-.078.892-.078.892l3.047 2.233s1.798-2.003 5.831-2.003zM9.696 7.023s5.735 4.012 6.498 4.611c.764.6 2.581 2.188.667 4.541-1.874 2.304-3.882 4.561-3.882 4.561l-1.146-.491-1.472-.764s2.759-3.442 3.25-4.097c.49-.654.334-1.194-.332-1.694-.645-.483-1.74-1.119-2.709-1.792-.958-.666-2.458-2.708-.874-4.875z"/><path d="M1.054 13.118l19.78 11.344s2.561 1.144 3.924-.709"/></symbol><symbol viewBox="0 0 46.664 46.664" id="supplies" xmlns="http://www.w3.org/2000/svg"><path d="M37.687 24.66c-4.945 0-8.973 4.025-8.973 8.975 0 4.95 4.026 8.974 8.973 8.974 4.95 0 8.977-4.024 8.977-8.974s-4.027-8.975-8.977-8.975zm0 15.384a6.417 6.417 0 0 1-6.409-6.409 6.418 6.418 0 0 1 6.409-6.41 6.417 6.417 0 0 1 6.411 6.41 6.417 6.417 0 0 1-6.411 6.409zM23.588 15.501v.01h8.047c-2.375-2.4-5.273-5.251-5.99-5.578-1.257-.575-3.966 1.462-4.547 1.748-.532.283-.954.699-1.043 1.236l-2.112 5.927-6.167.069c-1.811.485-.465 2.065-.465 2.065l3.097.041-.295 1.405-1.803 2.989a8.914 8.914 0 0 0-3.333-.648C4.027 24.765 0 28.792 0 33.741c0 4.947 4.026 8.974 8.977 8.974 4.948 0 8.975-4.026 8.975-8.974a8.956 8.956 0 0 0-3.423-7.038l2.005-3.326.487-2.322 2.41.03c.479-.136.833-.538.912-1.029l2.603-4.074.642-.481zM15.386 33.74c0 3.533-2.875 6.409-6.409 6.409s-6.411-2.876-6.411-6.409a6.419 6.419 0 0 1 6.411-6.411c.694 0 1.36.114 1.986.32l-3.579 5.939 2.197 1.323 3.607-5.989a6.386 6.386 0 0 1 2.198 4.818z"/><path d="M32.24 23.139s2.468-2.578 2.691-2.968c.225-.392.229-.872.007-1.265 0 0-.725-.76-1.771-1.832v.014h-8.949l4.281 3.716-6.367 9.947a1.264 1.264 0 0 0-.104 1.045l2.563 7.692 3.072-.17-1.741-7.787 6.318-8.392z"/><circle cx="19.703" cy="7.384" r="3.435"/><path d="M32.845 5.919c-1.06-.744-2.366-.789-3.123-.034l-1.484 1.487c-.756.756-.711 2.062.03 3.124l4.577-4.577zm.162 9.398c1.116 1.116 2.73 1.311 3.607.436l1.485-1.488c.877-.876.685-2.491-.434-3.606l-4.081-4.081-4.659 4.658 4.082 4.081z"/></symbol><symbol viewBox="0 0 512 512" id="train" xmlns="http://www.w3.org/2000/svg"><path d="M503.467 452.281H8.533c-4.719 0-8.533 3.823-8.533 8.533s3.814 8.533 8.533 8.533h494.933c4.719 0 8.533-3.823 8.533-8.533s-3.813-8.533-8.532-8.533zm-25.6-76.8H179.2a8.536 8.536 0 0 1-8.533-8.533V256.015a8.536 8.536 0 0 0-8.533-8.533h-102.4a8.536 8.536 0 0 0-8.533 8.533v25.6a8.526 8.526 0 0 0 6.46 8.277l27.674 6.921v78.669H42.667a8.536 8.536 0 0 0-8.533 8.533v25.6a8.536 8.536 0 0 0 8.533 8.533h42.667c0 18.825 15.309 34.133 34.133 34.133s34.133-15.309 34.133-34.133h25.6c0 18.825 15.309 34.133 34.133 34.133 18.825 0 34.133-15.309 34.133-34.133h25.6c0 18.825 15.309 34.133 34.133 34.133s34.133-15.309 34.133-34.133h25.6c0 18.825 15.309 34.133 34.133 34.133 18.825 0 34.133-15.309 34.133-34.133h42.667a8.536 8.536 0 0 0 8.533-8.533v-25.6c.002-4.711-3.821-8.534-8.531-8.534z"/><path d="M452.267 273.081H409.6v-17.067c0-11.213-7.287-20.659-17.348-24.115.521-1.604 1.067-3.2 1.306-4.958 1.246-9.233-1.724-18.176-7.893-24.678 2.577-8.755 2.364-19.806-3.721-28.57-2.953-4.25-9.242-10.487-21.257-11.767 1.382-13.739-3.959-27.042-15.155-36.531-13.747-11.639-32.469-14.959-49.323-9.455-1.579-3.814-3.891-6.929-6.938-9.301-3.678-2.867-8.124-4.514-13.449-4.966 2.031-13.252-.845-26.3-8.422-37.086-10.103-14.37-26.692-22.485-45.534-21.905-20.233 0-40.388 10.957-50.159 27.264-7.014 11.733-8.047 25.105-3.098 38.289-20.369 16.998-22.502 39.799-14.959 55.936 7.689 16.469 26.991 29.705 53.88 25.139 3.507 6.997 10.146 13.431 18.662 17.69 11.776 5.888 25.105 6.844 37.658 2.97 1.28 7.996 5.299 13.756 9.199 17.621 15.172 15.044 43.776 16.853 65.843 12.177 5.632 4.42 13.107 7.33 20.864 8.422-.811 2.475-1.357 5.077-1.357 7.825v17.067h-44.544c-4.582-10.035-17.126-17.067-32.256-17.067-15.13 0-27.674 7.031-32.256 17.067h-53.077a8.536 8.536 0 0 0-8.533 8.533v76.8h264.533c14.592 0 25.6-18.338 25.6-42.667s-11.007-42.667-25.599-42.667z"/></symbol><symbol viewBox="0 0 444.82 280.37" id="up" xmlns="http://www.w3.org/2000/svg"><title>up</title><path d="M10.57 248.39L32 269.77a36.56 36.56 0 0 0 26 10.56 35 35 0 0 0 25.65-10.56l138.76-138.73 138.76 138.73a35 35 0 0 0 25.7 10.56 36.56 36.56 0 0 0 26-10.56L434 248.38a35.43 35.43 0 0 0 10.85-26q0-15.42-10.85-25.69L248.11 10.84Q237.83-.01 222.41-.01a35.43 35.43 0 0 0-26 10.85L10.57 196.71A35 35 0 0 0 0 222.4a36.57 36.57 0 0 0 10.57 25.99z"/></symbol><symbol viewBox="0 0 96 96" id="vkontakte" xmlns="http://www.w3.org/2000/svg"><path d="M53.174 52.908c-1.539-.896-3.678-.896-5.416-.896h-5.707v11.76h5.238c1.939 0 4.412.139 6.084-1.035 1.535-1.033 2.404-3.061 2.404-4.992 0-1.794-1.068-3.94-2.603-4.837zm-2.153-10.043c1.27-.967 1.936-2.691 1.936-4.279 0-1.725-.801-3.381-2.27-4.277-1.537-.896-4.346-.689-6.15-.689h-2.486v10.35h3.289c1.871-.001 4.078.137 5.681-1.105zM79.125 0H16.873C7.555 0 0 7.555 0 16.875v62.25C0 88.443 7.555 96 16.873 96h62.252C88.443 96 96 88.443 96 79.125v-62.25C96 7.555 88.443 0 79.125 0zM50.604 72.535H30.992V25.201H52.42c6.207 0 11.934 3.951 11.934 10.92 0 5.381-3.004 9.066-6.836 10.211v.139c5.682 1.174 9.74 4.26 9.74 11.705 0 6.89-4.692 14.359-16.654 14.359z"/></symbol><symbol viewBox="0 0 512 512" id="walking" xmlns="http://www.w3.org/2000/svg"><path d="M346.293 229.292C355.873 214.775 361 197.783 361 180c0-38.599-24.814-72.627-60.469-85.02C295.463 41.763 250.521 0 196 0 141.918 0 97.27 41.089 91.732 94.893 55.932 107.212 30 141.313 30 180c0 17.783 5.127 34.775 14.707 49.292C17.08 248.745 0 280.693 0 315c0 57.891 48.109 105 106 105h75v-68.789l-55.605-55.605c-5.859-5.859-5.859-15.352 0-21.211s15.352-5.859 21.211 0L181 308.789v-77.578l-55.605-55.605c-5.859-5.859-5.859-15.352 0-21.211 5.859-5.859 15.352-5.859 21.211 0L181 188.789V105c0-8.291 6.709-15 15-15s15 6.709 15 15v143.789l34.395-34.395c5.859-5.859 15.352-5.859 21.211 0s5.859 15.352 0 21.211L211 291.211V420h75c57.891 0 105-47.109 105-105 0-34.307-17.08-66.255-44.707-85.708z"/><path d="M467.293 229.292C476.873 214.775 482 197.783 482 180c0-38.599-24.814-72.627-60.469-85.02C416.463 41.763 371.521 0 317 0c-10.305 0-20.327 1.906-30.022 4.808 20.034 17.988 35.004 41.693 41.448 69.313C367.303 94.893 392 135.63 392 180c0 14.531-2.52 28.594-7.5 41.924C408.465 246.973 422 280.327 422 315c0 42.627-20.246 80.24-51.194 105H407c57.891 0 105-47.109 105-105 0-34.307-17.08-66.255-44.707-85.708zM406 482h-75v-30h-30v30h-90v-30h-30v30h-75c-8.401 0-15 6.599-15 15s6.599 15 15 15h300c8.401 0 15-6.599 15-15s-6.599-15-15-15z"/></symbol><symbol viewBox="0 0 483.537 483.537" id="warning" xmlns="http://www.w3.org/2000/svg"><path d="M479.963 425.047L269.051 29.854a30.358 30.358 0 0 0-26.782-16.081h-.03a30.366 30.366 0 0 0-26.782 16.051L3.603 425.016c-5.046 9.485-4.773 20.854.699 29.974 5.502 9.15 15.413 14.774 26.083 14.774H453.12a30.371 30.371 0 0 0 26.083-14.774c5.502-9.15 5.776-20.519.76-29.943zm-237.724-16.082c-16.781 0-30.399-13.619-30.399-30.399s13.619-30.399 30.399-30.399c16.75 0 30.399 13.619 30.399 30.399s-13.618 30.399-30.399 30.399zm30.43-121.111c0 16.811-13.649 30.399-30.399 30.399-16.781 0-30.399-13.589-30.399-30.399V166.256c0-16.781 13.619-30.399 30.399-30.399 16.75 0 30.399 13.619 30.399 30.399v121.598z"/></symbol></svg>